  0
SECTION
  2
HEADER
  9
$ACADVER
  1
AC1015
  9
$ACADMAINTVER
 70
     6
  9
$DWGCODEPAGE
  3
ANSI_1252
  9
$INSBASE
 10
0.0
 20
0.0
 30
0.0
  9
$EXTMIN
 10
-2.7737122638
 20
-7.0910926992
 30
0.0
  9
$EXTMAX
 10
3.9513316125
 20
0.148023314
 30
0.0
  9
$LIMMIN
 10
0.0
 20
0.0
  9
$LIMMAX
 10
12.0
 20
9.0
  9
$ORTHOMODE
 70
     0
  9
$REGENMODE
 70
     1
  9
$FILLMODE
 70
     1
  9
$QTEXTMODE
 70
     0
  9
$MIRRTEXT
 70
     1
  9
$LTSCALE
 40
1.0
  9
$ATTMODE
 70
     1
  9
$TEXTSIZE
 40
0.125
  9
$TRACEWID
 40
0.05
  9
$TEXTSTYLE
  7
Standard
  9
$CLAYER
  8
0
  9
$CELTYPE
  6
ByLayer
  9
$CECOLOR
 62
   256
  9
$CELTSCALE
 40
1.0
  9
$DISPSILH
 70
     0
  9
$DIMSCALE
 40
1.0
  9
$DIMASZ
 40
0.13
  9
$DIMEXO
 40
0.0
  9
$DIMDLI
 40
0.38
  9
$DIMRND
 40
0.0
  9
$DIMDLE
 40
0.0
  9
$DIMEXE
 40
0.125
  9
$DIMTP
 40
0.0
  9
$DIMTM
 40
0.0
  9
$DIMTXT
 40
0.125
  9
$DIMCEN
 40
0.09
  9
$DIMTSZ
 40
0.0
  9
$DIMTOL
 70
     0
  9
$DIMLIM
 70
     0
  9
$DIMTIH
 70
     1
  9
$DIMTOH
 70
     1
  9
$DIMSE1
 70
     0
  9
$DIMSE2
 70
     0
  9
$DIMTAD
 70
     0
  9
$DIMZIN
 70
     1
  9
$DIMBLK
  1

  9
$DIMASO
 70
     1
  9
$DIMSHO
 70
     1
  9
$DIMPOST
  1

  9
$DIMAPOST
  1

  9
$DIMALT
 70
     0
  9
$DIMALTD
 70
     2
  9
$DIMALTF
 40
25.4
  9
$DIMLFAC
 40
1.0
  9
$DIMTOFL
 70
     0
  9
$DIMTVP
 40
0.0
  9
$DIMTIX
 70
     0
  9
$DIMSOXD
 70
     0
  9
$DIMSAH
 70
     0
  9
$DIMBLK1
  1

  9
$DIMBLK2
  1

  9
$DIMSTYLE
  2
Standard
  9
$DIMCLRD
 70
     0
  9
$DIMCLRE
 70
     0
  9
$DIMCLRT
 70
     0
  9
$DIMTFAC
 40
1.0
  9
$DIMGAP
 40
0.06
  9
$DIMJUST
 70
     0
  9
$DIMSD1
 70
     0
  9
$DIMSD2
 70
     0
  9
$DIMTOLJ
 70
     1
  9
$DIMTZIN
 70
     1
  9
$DIMALTZ
 70
     0
  9
$DIMALTTZ
 70
     0
  9
$DIMUPT
 70
     0
  9
$DIMDEC
 70
     2
  9
$DIMTDEC
 70
     2
  9
$DIMALTU
 70
     2
  9
$DIMALTTD
 70
     2
  9
$DIMTXSTY
  7
Standard
  9
$DIMAUNIT
 70
     0
  9
$DIMADEC
 70
     2
  9
$DIMALTRND
 40
0.0
  9
$DIMAZIN
 70
     0
  9
$DIMDSEP
 70
    46
  9
$DIMATFIT
 70
     3
  9
$DIMFRAC
 70
     0
  9
$DIMLDRBLK
  1

  9
$DIMLUNIT
 70
     2
  9
$DIMLWD
 70
    -2
  9
$DIMLWE
 70
    -2
  9
$DIMTMOVE
 70
     0
  9
$LUNITS
 70
     2
  9
$LUPREC
 70
     2
  9
$SKETCHINC
 40
0.1
  9
$FILLETRAD
 40
0.0
  9
$AUNITS
 70
     0
  9
$AUPREC
 70
     2
  9
$MENU
  1
.
  9
$ELEVATION
 40
0.0
  9
$PELEVATION
 40
0.0
  9
$THICKNESS
 40
0.0
  9
$LIMCHECK
 70
     0
  9
$CHAMFERA
 40
0.0
  9
$CHAMFERB
 40
0.0
  9
$CHAMFERC
 40
0.0
  9
$CHAMFERD
 40
0.0
  9
$SKPOLY
 70
     0
  9
$TDCREATE
 40
2460027.697599526
  9
$TDUCREATE
 40
2460027.864266192
  9
$TDUPDATE
 40
2460027.698023947
  9
$TDUUPDATE
 40
2460027.864690613
  9
$TDINDWG
 40
0.0000000116
  9
$TDUSRTIMER
 40
0.0000000116
  9
$USRTIMER
 70
     1
  9
$ANGBASE
 50
0.0
  9
$ANGDIR
 70
     0
  9
$PDMODE
 70
     0
  9
$PDSIZE
 40
-1.0
  9
$PLINEWID
 40
0.0
  9
$SPLFRAME
 70
     0
  9
$SPLINETYPE
 70
     6
  9
$SPLINESEGS
 70
     8
  9
$HANDSEED
  5
1D8
  9
$SURFTAB1
 70
     6
  9
$SURFTAB2
 70
     6
  9
$SURFTYPE
 70
     6
  9
$SURFU
 70
     6
  9
$SURFV
 70
     6
  9
$UCSBASE
  2

  9
$UCSNAME
  2

  9
$UCSORG
 10
0.0
 20
0.0
 30
0.0
  9
$UCSXDIR
 10
1.0
 20
0.0
 30
0.0
  9
$UCSYDIR
 10
0.0
 20
1.0
 30
0.0
  9
$UCSORTHOREF
  2

  9
$UCSORTHOVIEW
 70
     0
  9
$UCSORGTOP
 10
0.0
 20
0.0
 30
0.0
  9
$UCSORGBOTTOM
 10
0.0
 20
0.0
 30
0.0
  9
$UCSORGLEFT
 10
0.0
 20
0.0
 30
0.0
  9
$UCSORGRIGHT
 10
0.0
 20
0.0
 30
0.0
  9
$UCSORGFRONT
 10
0.0
 20
0.0
 30
0.0
  9
$UCSORGBACK
 10
0.0
 20
0.0
 30
0.0
  9
$PUCSBASE
  2

  9
$PUCSNAME
  2

  9
$PUCSORG
 10
0.0
 20
0.0
 30
0.0
  9
$PUCSXDIR
 10
1.0
 20
0.0
 30
0.0
  9
$PUCSYDIR
 10
0.0
 20
1.0
 30
0.0
  9
$PUCSORTHOREF
  2

  9
$PUCSORTHOVIEW
 70
     0
  9
$PUCSORGTOP
 10
0.0
 20
0.0
 30
0.0
  9
$PUCSORGBOTTOM
 10
0.0
 20
0.0
 30
0.0
  9
$PUCSORGLEFT
 10
0.0
 20
0.0
 30
0.0
  9
$PUCSORGRIGHT
 10
0.0
 20
0.0
 30
0.0
  9
$PUCSORGFRONT
 10
0.0
 20
0.0
 30
0.0
  9
$PUCSORGBACK
 10
0.0
 20
0.0
 30
0.0
  9
$USERI1
 70
     0
  9
$USERI2
 70
     0
  9
$USERI3
 70
     0
  9
$USERI4
 70
     0
  9
$USERI5
 70
     0
  9
$USERR1
 40
0.0
  9
$USERR2
 40
0.0
  9
$USERR3
 40
0.0
  9
$USERR4
 40
0.0
  9
$USERR5
 40
0.0
  9
$WORLDVIEW
 70
     1
  9
$SHADEDGE
 70
     3
  9
$SHADEDIF
 70
    70
  9
$TILEMODE
 70
     1
  9
$MAXACTVP
 70
    64
  9
$PINSBASE
 10
0.0
 20
0.0
 30
0.0
  9
$PLIMCHECK
 70
     0
  9
$PEXTMIN
 10
1.0000000000E+20
 20
1.0000000000E+20
 30
1.0000000000E+20
  9
$PEXTMAX
 10
-1.0000000000E+20
 20
-1.0000000000E+20
 30
-1.0000000000E+20
  9
$PLIMMIN
 10
0.0
 20
0.0
  9
$PLIMMAX
 10
12.0
 20
9.0
  9
$UNITMODE
 70
     0
  9
$VISRETAIN
 70
     1
  9
$PLINEGEN
 70
     0
  9
$PSLTSCALE
 70
     1
  9
$TREEDEPTH
 70
  3020
  9
$CMLSTYLE
  2
Standard
  9
$CMLJUST
 70
     0
  9
$CMLSCALE
 40
1.0
  9
$PROXYGRAPHICS
 70
     1
  9
$MEASUREMENT
 70
     0
  9
$CELWEIGHT
370
    -1
  9
$ENDCAPS
280
     0
  9
$JOINSTYLE
280
     0
  9
$LWDISPLAY
290
     1
  9
$INSUNITS
 70
     1
  9
$HYPERLINKBASE
  1

  9
$STYLESHEET
  1

  9
$XEDIT
290
     1
  9
$CEPSNTYPE
380
     0
  9
$PSTYLEMODE
290
     1
  9
$FINGERPRINTGUID
  2
{ef483299-65e6-483e-8046-0cb9b51d25c9}
  9
$VERSIONGUID
  2
{FAEB1C32-E019-11D5-929B-00C0DF256EC4}
  9
$EXTNAMES
290
     1
  9
$PSVPSCALE
 40
0.0
  9
$OLESTARTUP
290
     0
  0
ENDSEC
  0
SECTION
  2
CLASSES
  0
CLASS
  1
ACDBDICTIONARYWDFLT
  2
AcDbDictionaryWithDefault
  3
ObjectDBX Classes
 90
        0
280
     0
281
     0
  0
CLASS
  1
VISUALSTYLE
  2
AcDbVisualStyle
  3
ObjectDBX Classes
 90
     4095
280
     0
281
     0
  0
CLASS
  1
MATERIAL
  2
AcDbMaterial
  3
ObjectDBX Classes
 90
     1153
280
     0
281
     0
  0
CLASS
  1
SCALE
  2
AcDbScale
  3
ObjectDBX Classes
 90
     1153
280
     0
281
     0
  0
CLASS
  1
TABLESTYLE
  2
AcDbTableStyle
  3
ObjectDBX Classes
 90
     4095
280
     0
281
     0
  0
CLASS
  1
MLEADERSTYLE
  2
AcDbMLeaderStyle
  3
ACDB_MLEADERSTYLE_CLASS
 90
     4095
280
     0
281
     0
  0
CLASS
  1
SUN
  2
AcDbSun
  3
SCENEOE
 90
     1153
280
     0
281
     0
  0
CLASS
  1
ACDBPLACEHOLDER
  2
AcDbPlaceHolder
  3
ObjectDBX Classes
 90
        0
280
     0
281
     0
  0
CLASS
  1
LAYOUT
  2
AcDbLayout
  3
ObjectDBX Classes
 90
        0
280
     0
281
     0
  0
ENDSEC
  0
SECTION
  2
TABLES
  0
TABLE
  2
VPORT
  5
8
330
0
100
AcDbSymbolTable
 70
     1
  0
VPORT
  5
29
330
8
100
AcDbSymbolTableRecord
100
AcDbViewportTableRecord
  2
*Active
 70
     0
 10
0.0
 20
0.0
 11
1.0
 21
1.0
 12
0.5888096744
 22
-3.4715346926
 13
0.0
 23
0.0
 14
0.5
 24
0.5
 15
0.5
 25
0.5
 16
0.0
 26
0.0
 36
1.0
 17
0.0
 27
0.0
 37
0.0
 40
7.3838983335
 41
0.9289868907
 42
50.0
 43
0.0
 44
0.0
 50
0.0
 51
0.0
 71
     0
 72
   100
 73
     1
 74
     3
 75
     0
 76
     0
 77
     0
 78
     0
281
     0
 65
     1
110
0.0
120
0.0
130
0.0
111
1.0
121
0.0
131
0.0
112
0.0
122
1.0
132
0.0
 79
     0
146
0.0
  0
ENDTAB
  0
TABLE
  2
LTYPE
  5
5
330
0
100
AcDbSymbolTable
 70
     6
  0
LTYPE
  5
14
330
5
100
AcDbSymbolTableRecord
100
AcDbLinetypeTableRecord
  2
ByBlock
 70
     0
  3

 72
    65
 73
     0
 40
0.0
  0
LTYPE
  5
15
330
5
100
AcDbSymbolTableRecord
100
AcDbLinetypeTableRecord
  2
ByLayer
 70
     0
  3

 72
    65
 73
     0
 40
0.0
  0
LTYPE
  5
16
330
5
100
AcDbSymbolTableRecord
100
AcDbLinetypeTableRecord
  2
Continuous
 70
     0
  3
Solid line
 72
    65
 73
     0
 40
0.0
  0
LTYPE
  5
5E
330
5
100
AcDbSymbolTableRecord
100
AcDbLinetypeTableRecord
  2
HIDDEN
 70
     0
  3
Hidden __ __ __ __ __ __ __ __ __ __ __ __ __ __
 72
    65
 73
     2
 40
0.075
 49
0.05
 74
     0
 49
-0.025
 74
     0
  0
LTYPE
  5
5F
330
5
100
AcDbSymbolTableRecord
100
AcDbLinetypeTableRecord
  2
PHANTOM
 70
     0
  3
Phantom ______  __  __  ______  __  __  ______
 72
    65
 73
     6
 40
0.5
 49
0.25
 74
     0
 49
-0.05
 74
     0
 49
0.05
 74
     0
 49
-0.05
 74
     0
 49
0.05
 74
     0
 49
-0.05
 74
     0
  0
LTYPE
  5
60
330
5
100
AcDbSymbolTableRecord
100
AcDbLinetypeTableRecord
  2
CENTER
 70
     0
  3
Center ____ _ ____ _ ____ _ ____ _ ____ _ ____
 72
    65
 73
     4
 40
0.4
 49
0.25
 74
     0
 49
-0.05
 74
     0
 49
0.05
 74
     0
 49
-0.05
 74
     0
  0
LTYPE
  5
61
330
5
100
AcDbSymbolTableRecord
100
AcDbLinetypeTableRecord
  2
CENTERX2
 70
     0
  3
Center (2x) ________  __  ________  __  _____
 72
    65
 73
     4
 40
0.8
 49
0.5
 74
     0
 49
-0.1
 74
     0
 49
0.1
 74
     0
 49
-0.1
 74
     0
  0
LTYPE
  5
62
330
5
100
AcDbSymbolTableRecord
100
AcDbLinetypeTableRecord
  2
DOT2
 70
     0
  3
Dot (.5x) ........................................
 72
    65
 73
     2
 40
0.025
 49
0.0
 74
     0
 49
-0.025
 74
     0
  0
ENDTAB
  0
TABLE
  2
LAYER
  5
2
330
0
100
AcDbSymbolTable
 70
     1
  0
LAYER
  5
10
330
2
100
AcDbSymbolTableRecord
100
AcDbLayerTableRecord
  2
0
 70
     0
 62
     7
  6
Continuous
370
    -3
390
F
  0
ENDTAB
  0
TABLE
  2
STYLE
  5
3
330
0
100
AcDbSymbolTable
 70
     2
  0
STYLE
  5
11
330
3
100
AcDbSymbolTableRecord
100
AcDbTextStyleTableRecord
  2
Standard
 70
     0
 40
0.0
 41
1.0
 50
0.0
 71
     0
 42
0.125
  3
txt
  4

  0
STYLE
  5
1D4
330
3
100
AcDbSymbolTableRecord
100
AcDbTextStyleTableRecord
  2
SLDTEXTSTYLE0
 70
     0
 40
0.0
 41
0.7
 50
0.0
 71
     0
 42
0.125
  3
TXT
  4

  0
ENDTAB
  0
TABLE
  2
VIEW
  5
6
330
0
100
AcDbSymbolTable
 70
     0
  0
ENDTAB
  0
TABLE
  2
UCS
  5
7
330
0
100
AcDbSymbolTable
 70
     0
  0
ENDTAB
  0
TABLE
  2
APPID
  5
9
330
0
100
AcDbSymbolTable
 70
     1
  0
APPID
  5
12
330
9
100
AcDbSymbolTableRecord
100
AcDbRegAppTableRecord
  2
ACAD
 70
     0
  0
ENDTAB
  0
TABLE
  2
DIMSTYLE
  5
A
330
0
100
AcDbSymbolTable
 70
     1
100
AcDbDimStyleTable
  0
DIMSTYLE
105
27
330
A
100
AcDbSymbolTableRecord
100
AcDbDimStyleTableRecord
  2
Standard
 70
     0
178
     0
340
11
  0
ENDTAB
  0
TABLE
  2
BLOCK_RECORD
  5
1
330
0
100
AcDbSymbolTable
 70
     1
  0
BLOCK_RECORD
  5
1F
330
1
100
AcDbSymbolTableRecord
100
AcDbBlockTableRecord
  2
*Model_Space
340
22
  0
BLOCK_RECORD
  5
1B
330
1
100
AcDbSymbolTableRecord
100
AcDbBlockTableRecord
  2
*Paper_Space
340
1E
  0
BLOCK_RECORD
  5
23
330
1
100
AcDbSymbolTableRecord
100
AcDbBlockTableRecord
  2
*Paper_Space0
340
26
  0
ENDTAB
  0
ENDSEC
  0
SECTION
  2
BLOCKS
  0
BLOCK
  5
20
330
1F
100
AcDbEntity
  8
0
100
AcDbBlockBegin
  2
*Model_Space
 70
     0
 10
0.0
 20
0.0
 30
0.0
  3
*Model_Space
  1

  0
ENDBLK
  5
21
330
1F
100
AcDbEntity
  8
0
100
AcDbBlockEnd
  0
BLOCK
  5
1C
330
1B
100
AcDbEntity
 67
     1
  8
0
100
AcDbBlockBegin
  2
*Paper_Space
 70
     0
 10
0.0
 20
0.0
 30
0.0
  3
*Paper_Space
  1

  0
ENDBLK
  5
1D
330
1B
100
AcDbEntity
 67
     1
  8
0
100
AcDbBlockEnd
  0
BLOCK
  5
24
330
23
100
AcDbEntity
  8
0
100
AcDbBlockBegin
  2
*Paper_Space0
 70
     0
 10
0.0
 20
0.0
 30
0.0
  3
*Paper_Space0
  1

  0
ENDBLK
  5
25
330
23
100
AcDbEntity
  8
0
100
AcDbBlockEnd
  0
ENDSEC
  0
SECTION
  2
ENTITIES
  0
CIRCLE
  5
63
330
1F
100
AcDbEntity
  8
0
  6
Continuous
 62
     7
100
AcDbCircle
 10
-1.6808472661
 20
-2.731976686
 30
0.0
 40
0.05
  0
CIRCLE
  5
64
330
1F
100
AcDbEntity
  8
0
  6
Continuous
 62
     7
100
AcDbCircle
 10
0.0003976893
 20
-2.071976686
 30
0.0
 40
0.05
  0
CIRCLE
  5
65
330
1F
100
AcDbEntity
  8
0
  6
Continuous
 62
     7
100
AcDbCircle
 10
1.4846534135
 20
-2.071976686
 30
0.0
 40
0.0499999999999998
  0
CIRCLE
  5
66
330
1F
100
AcDbEntity
  8
0
  6
Continuous
 62
     7
100
AcDbCircle
 10
2.8090806832
 20
-2.731976686
 30
0.0
 40
0.0499999999999996
  0
CIRCLE
  5
67
330
1F
100
AcDbEntity
  8
0
  6
Continuous
 62
     7
100
AcDbCircle
 10
-1.5769442878
 20
-6.9410926992
 30
0.0
 40
0.0499999999999999
  0
CIRCLE
  5
68
330
1F
100
AcDbEntity
  8
0
  6
Continuous
 62
     7
100
AcDbCircle
 10
2.7748167853
 20
-6.9410926992
 30
0.0
 40
0.0499999999999995
  0
CIRCLE
  5
69
330
1F
100
AcDbEntity
  8
0
  6
Continuous
 62
     7
100
AcDbCircle
 10
1.2312013663
 20
-6.2810926992
 30
0.0
 40
0.0499999999999059
  0
CIRCLE
  5
6A
330
1F
100
AcDbEntity
  8
0
  6
Continuous
 62
     7
100
AcDbCircle
 10
-0.2525170181
 20
-6.2810926992
 30
0.0
 40
0.0499999999999066
  0
LINE
  5
6B
330
1F
100
AcDbEntity
  8
0
  6
Continuous
 62
     7
100
AcDbLine
 10
2.951292139
 20
-0.101976686
 30
0.0
 11
2.6790806832
 21
-0.101976686
 31
0.0
  0
LINE
  5
6C
330
1F
100
AcDbEntity
  8
0
  6
Continuous
 62
     7
100
AcDbLine
 10
3.7190806832
 20
-0.351976686
 30
0.0
 11
3.7190806832
 21
-0.101976686
 31
0.0
  0
LINE
  5
6D
330
1F
100
AcDbEntity
  8
0
  6
Continuous
 62
     7
100
AcDbLine
 10
3.7190806832
 20
-1.441976686
 30
0.0
 11
3.7190806832
 21
-0.7329868324
 31
0.0
  0
LINE
  5
6E
330
1F
100
AcDbEntity
  8
0
  6
Continuous
 62
     7
100
AcDbLine
 10
3.0690806832
 20
-2.281976686
 30
0.0
 11
3.7190806832
 21
-2.281976686
 31
0.0
  0
LINE
  5
6F
330
1F
100
AcDbEntity
  8
0
  6
CENTERX2
 62
     7
100
AcDbLine
 10
1.0896534135
 20
-0.101976686
 30
0.0
 11
1.3746534135
 21
-0.101976686
 31
0.0
  0
LINE
  5
70
330
1F
100
AcDbEntity
  8
0
  6
Continuous
 62
     7
100
AcDbLine
 10
-1.384239102
 20
-0.101976686
 30
0.0
 11
-1.7328403832
 21
-0.101976686
 31
0.0
  0
LINE
  5
71
330
1F
100
AcDbEntity
  8
0
  6
Continuous
 62
     7
100
AcDbLine
 10
-2.484239102
 20
-0.101976686
 30
0.0
 11
-2.484239102
 21
-0.3492548675
 31
0.0
  0
LINE
  5
72
330
1F
100
AcDbEntity
  8
0
  6
Continuous
 62
     7
100
AcDbLine
 10
-2.4631870473
 20
-2.281976686
 30
0.0
 11
-1.9408472661
 21
-2.281976686
 31
0.0
  0
LINE
  5
73
330
1F
100
AcDbEntity
  8
0
  6
Continuous
 62
     7
100
AcDbLine
 10
-1.384239102
 20
-0.101976686
 30
0.0
 11
-1.384239102
 21
-1.481976686
 31
0.0
  0
LINE
  5
74
330
1F
100
AcDbEntity
  8
0
  6
Continuous
 62
     7
100
AcDbLine
 10
-1.384239102
 20
-1.481976686
 30
0.0
 11
-0.7631870473
 21
-2.281976686
 31
0.0
  0
LINE
  5
75
330
1F
100
AcDbEntity
  8
0
  6
Continuous
 62
     7
100
AcDbLine
 10
2.0390806832
 20
-2.281976686
 30
0.0
 11
2.5490806832
 21
-2.281976686
 31
0.0
  0
LINE
  5
76
330
1F
100
AcDbEntity
  8
0
  6
Continuous
 62
     7
100
AcDbLine
 10
-2.7737122638
 20
-0.3492548675
 30
0.0
 11
-2.484239102
 21
-0.3492548675
 31
0.0
  0
LINE
  5
77
330
1F
100
AcDbEntity
  8
0
  6
Continuous
 62
     7
100
AcDbLine
 10
-2.7737122638
 20
-0.3492548675
 30
0.0
 11
-2.7737122638
 21
-0.7357086509
 31
0.0
  0
LINE
  5
78
330
1F
100
AcDbEntity
  8
0
  6
Continuous
 62
     7
100
AcDbLine
 10
-2.7737122638
 20
-0.7357086509
 30
0.0
 11
-2.484239102
 21
-0.7357086509
 31
0.0
  0
LINE
  5
79
330
1F
100
AcDbEntity
  8
0
  6
Continuous
 62
     7
100
AcDbLine
 10
-2.484239102
 20
-1.9000250258
 30
0.0
 11
-2.484239102
 21
-2.281976686
 31
0.0
  0
LINE
  5
7A
330
1F
100
AcDbEntity
  8
0
  6
Continuous
 62
     7
100
AcDbLine
 10
-2.484239102
 20
-1.9000250258
 30
0.0
 11
-2.484239102
 21
-2.281976686
 31
0.0
  0
LINE
  5
7B
330
1F
100
AcDbEntity
  8
0
  6
Continuous
 62
     7
100
AcDbLine
 10
-2.7737122638
 20
-1.9000250258
 30
0.0
 11
-2.484239102
 21
-1.9000250258
 31
0.0
  0
LINE
  5
7C
330
1F
100
AcDbEntity
  8
0
  6
Continuous
 62
     7
100
AcDbLine
 10
-2.7737122638
 20
-1.9000250258
 30
0.0
 11
-2.7737122638
 21
-1.481976686
 31
0.0
  0
LINE
  5
7D
330
1F
100
AcDbEntity
  8
0
  6
Continuous
 62
     7
100
AcDbLine
 10
-2.7737122638
 20
-1.481976686
 30
0.0
 11
-2.484239102
 21
-1.481976686
 31
0.0
  0
LINE
  5
7E
330
1F
100
AcDbEntity
  8
0
  6
Continuous
 62
     7
100
AcDbLine
 10
-1.4208472661
 20
-2.281976686
 30
0.0
 11
-0.7631870473
 21
-2.281976686
 31
0.0
  0
LINE
  5
7F
330
1F
100
AcDbEntity
  8
0
  6
Continuous
 62
     7
100
AcDbLine
 10
-1.4208472661
 20
-2.281976686
 30
0.0
 11
-0.7631870473
 21
-2.281976686
 31
0.0
  0
LINE
  5
80
330
1F
100
AcDbEntity
  8
0
  6
Continuous
 62
     7
100
AcDbLine
 10
3.7190806832
 20
-2.281976686
 30
0.0
 11
3.7190806832
 21
-1.861976686
 31
0.0
  0
LINE
  5
81
330
1F
100
AcDbEntity
  8
0
  6
Continuous
 62
     7
100
AcDbLine
 10
3.7190806832
 20
-0.101976686
 30
0.0
 11
3.471292139
 21
-0.101976686
 31
0.0
  0
LINE
  5
82
330
1F
100
AcDbEntity
  8
0
  6
Continuous
 62
     7
100
AcDbLine
 10
2.6790806832
 20
-0.101976686
 30
0.0
 11
2.6790806832
 21
-1.441976686
 31
0.0
  0
LINE
  5
83
330
1F
100
AcDbEntity
  8
0
  6
Continuous
 62
     7
100
AcDbLine
 10
2.6790806832
 20
-1.441976686
 30
0.0
 11
2.0390806832
 21
-2.281976686
 31
0.0
  0
LINE
  5
84
330
1F
100
AcDbEntity
  8
0
  6
Continuous
 62
     7
100
AcDbLine
 10
-2.484239102
 20
-0.101976686
 30
0.0
 11
-2.484239102
 21
-0.3492548675
 31
0.0
  0
LINE
  5
85
330
1F
100
AcDbEntity
  8
0
  6
Continuous
 62
     7
100
AcDbLine
 10
2.5490806832
 20
-2.881976686
 30
0.0
 11
3.0690806832
 21
-2.881976686
 31
0.0
  0
LINE
  5
86
330
1F
100
AcDbEntity
  8
0
  6
Continuous
 62
     7
100
AcDbLine
 10
2.5490806832
 20
-2.881976686
 30
0.0
 11
2.5490806832
 21
-2.281976686
 31
0.0
  0
LINE
  5
87
330
1F
100
AcDbEntity
  8
0
  6
Continuous
 62
     7
100
AcDbLine
 10
3.0690806832
 20
-2.881976686
 30
0.0
 11
3.0690806832
 21
-2.281976686
 31
0.0
  0
LINE
  5
88
330
1F
100
AcDbEntity
  8
0
  6
Continuous
 62
     7
100
AcDbLine
 10
2.951292139
 20
-0.101976686
 30
0.0
 11
2.951292139
 21
0.148023314
 31
0.0
  0
LINE
  5
89
330
1F
100
AcDbEntity
  8
0
  6
Continuous
 62
     7
100
AcDbLine
 10
2.951292139
 20
0.148023314
 30
0.0
 11
3.471292139
 21
0.148023314
 31
0.0
  0
LINE
  5
8A
330
1F
100
AcDbEntity
  8
0
  6
Continuous
 62
     7
100
AcDbLine
 10
3.471292139
 20
-0.101976686
 30
0.0
 11
3.471292139
 21
0.148023314
 31
0.0
  0
LINE
  5
8B
330
1F
100
AcDbEntity
  8
0
  6
Continuous
 62
     7
100
AcDbLine
 10
3.7190806832
 20
-0.7329868324
 30
0.0
 11
3.7190806832
 21
-0.351976686
 31
0.0
  0
LINE
  5
8C
330
1F
100
AcDbEntity
  8
0
  6
Continuous
 62
     7
100
AcDbLine
 10
3.7190806832
 20
-1.861976686
 30
0.0
 11
3.9513316125
 21
-1.861976686
 31
0.0
  0
LINE
  5
8D
330
1F
100
AcDbEntity
  8
0
  6
Continuous
 62
     7
100
AcDbLine
 10
3.7190806832
 20
-1.441976686
 30
0.0
 11
3.9513316125
 21
-1.441976686
 31
0.0
  0
LINE
  5
8E
330
1F
100
AcDbEntity
  8
0
  6
Continuous
 62
     7
100
AcDbLine
 10
3.9513316125
 20
-1.861976686
 30
0.0
 11
3.9513316125
 21
-1.441976686
 31
0.0
  0
LINE
  5
8F
330
1F
100
AcDbEntity
  8
0
  6
Continuous
 62
     7
100
AcDbLine
 10
-2.2328403832
 20
-0.101976686
 30
0.0
 11
-2.2328403832
 21
0.148023314
 31
0.0
  0
LINE
  5
90
330
1F
100
AcDbEntity
  8
0
  6
Continuous
 62
     7
100
AcDbLine
 10
-2.2328403832
 20
0.148023314
 30
0.0
 11
-1.7328403832
 21
0.148023314
 31
0.0
  0
LINE
  5
91
330
1F
100
AcDbEntity
  8
0
  6
Continuous
 62
     7
100
AcDbLine
 10
-1.7328403832
 20
-0.101976686
 30
0.0
 11
-1.7328403832
 21
0.148023314
 31
0.0
  0
LINE
  5
92
330
1F
100
AcDbEntity
  8
0
  6
Continuous
 62
     7
100
AcDbLine
 10
-1.9408472661
 20
-2.281976686
 30
0.0
 11
-2.4631870473
 21
-2.281976686
 31
0.0
  0
LINE
  5
93
330
1F
100
AcDbEntity
  8
0
  6
Continuous
 62
     7
100
AcDbLine
 10
-1.9408472661
 20
-2.881976686
 30
0.0
 11
-1.4208472661
 21
-2.881976686
 31
0.0
  0
LINE
  5
94
330
1F
100
AcDbEntity
  8
0
  6
Continuous
 62
     7
100
AcDbLine
 10
-1.9408472661
 20
-2.881976686
 30
0.0
 11
-1.9408472661
 21
-2.281976686
 31
0.0
  0
LINE
  5
95
330
1F
100
AcDbEntity
  8
0
  6
Continuous
 62
     7
100
AcDbLine
 10
-1.4208472661
 20
-2.881976686
 30
0.0
 11
-1.4208472661
 21
-2.281976686
 31
0.0
  0
LINE
  5
96
330
1F
100
AcDbEntity
  8
0
  6
Continuous
 62
     7
100
AcDbLine
 10
-0.7631870473
 20
-2.281976686
 30
0.0
 11
-1.4208472661
 21
-2.281976686
 31
0.0
  0
LINE
  5
97
330
1F
100
AcDbEntity
  8
0
  6
Continuous
 62
     7
100
AcDbLine
 10
-0.7631870473
 20
-2.281976686
 30
0.0
 11
-1.384239102
 21
-1.481976686
 31
0.0
  0
LINE
  5
98
330
1F
100
AcDbEntity
  8
0
  6
Continuous
 62
     7
100
AcDbLine
 10
-1.384239102
 20
-0.101976686
 30
0.0
 11
-1.384239102
 21
-1.481976686
 31
0.0
  0
LINE
  5
99
330
1F
100
AcDbEntity
  8
0
  6
Continuous
 62
     7
100
AcDbLine
 10
-1.384239102
 20
-0.101976686
 30
0.0
 11
-1.7328403832
 21
-0.101976686
 31
0.0
  0
LINE
  5
9A
330
1F
100
AcDbEntity
  8
0
  6
Continuous
 62
     7
100
AcDbLine
 10
-2.484239102
 20
-2.281976686
 30
0.0
 11
-1.9408472661
 21
-2.281976686
 31
0.0
  0
LINE
  5
9B
330
1F
100
AcDbEntity
  8
0
  6
Continuous
 62
     7
100
AcDbLine
 10
-1.384239102
 20
-1.481976686
 30
0.0
 11
-1.384239102
 21
-0.101976686
 31
0.0
  0
LINE
  5
9C
330
1F
100
AcDbEntity
  8
0
  6
Continuous
 62
     7
100
AcDbLine
 10
-2.2328403832
 20
-0.101976686
 30
0.0
 11
-2.484239102
 21
-0.101976686
 31
0.0
  0
LINE
  5
9D
330
1F
100
AcDbEntity
  8
0
  6
Continuous
 62
     7
100
AcDbLine
 10
-2.2328403832
 20
-0.101976686
 30
0.0
 11
-2.484239102
 21
-0.101976686
 31
0.0
  0
LINE
  5
9E
330
1F
100
AcDbEntity
  8
0
  6
Continuous
 62
     7
100
AcDbLine
 10
-2.484239102
 20
-0.7357086509
 30
0.0
 11
-2.484239102
 21
-1.481976686
 31
0.0
  0
LINE
  5
9F
330
1F
100
AcDbEntity
  8
0
  6
Continuous
 62
     7
100
AcDbLine
 10
-2.484239102
 20
-0.7357086509
 30
0.0
 11
-2.484239102
 21
-1.481976686
 31
0.0
  0
LINE
  5
A0
330
1F
100
AcDbEntity
  8
0
  6
CENTERX2
 62
     7
100
AcDbLine
 10
3.2517148282
 20
-0.4016890211
 30
0.0
 11
3.2517148282
 21
-0.3667303485
 31
0.0
  0
LINE
  5
A1
330
1F
100
AcDbEntity
  8
0
  6
Continuous
 62
     7
100
AcDbLine
 10
0.1103976893
 20
-0.101976686
 30
0.0
 11
0.3953976893
 21
-0.101976686
 31
0.0
  0
LINE
  5
A3
330
1F
100
AcDbEntity
  8
0
  6
Continuous
 62
     7
100
AcDbLine
 10
0.1753976893
 20
-1.621976686
 30
0.0
 11
0.3953976893
 21
-1.621976686
 31
0.0
  0
LINE
  5
A4
330
1F
100
AcDbEntity
  8
0
  6
Continuous
 62
     7
100
AcDbLine
 10
1.7246534135
 20
-0.101976686
 30
0.0
 11
2.0096534135
 21
-0.101976686
 31
0.0
  0
LINE
  5
A5
330
1F
100
AcDbEntity
  8
0
  6
Continuous
 62
     7
100
AcDbLine
 10
3.0228013901
 20
-0.3667303485
 30
0.0
 11
3.0570677993
 21
-0.3667303485
 31
0.0
  0
LINE
  5
A6
330
1F
100
AcDbEntity
  8
0
  6
Continuous
 62
     7
100
AcDbLine
 10
3.2517148282
 20
-0.3667303485
 30
0.0
 11
3.2517148282
 21
-0.614209971
 31
0.0
  0
LINE
  5
A7
330
1F
100
AcDbEntity
  8
0
  6
Continuous
 62
     7
100
AcDbLine
 10
-0.5246023107
 20
-0.101976686
 30
0.0
 11
-0.2396023107
 21
-0.101976686
 31
0.0
  0
LINE
  5
A8
330
1F
100
AcDbEntity
  8
0
  6
Continuous
 62
     7
100
AcDbLine
 10
-0.5246023107
 20
-0.101976686
 30
0.0
 11
-0.5246023107
 21
-1.621976686
 31
0.0
  0
LINE
  5
A9
330
1F
100
AcDbEntity
  8
0
  6
Continuous
 62
     7
100
AcDbLine
 10
-0.5246023107
 20
-1.621976686
 30
0.0
 11
-0.1746023107
 21
-1.621976686
 31
0.0
  0
LINE
  5
AA
330
1F
100
AcDbEntity
  8
0
  6
Continuous
 62
     7
100
AcDbLine
 10
0.3953976893
 20
-0.101976686
 30
0.0
 11
0.3953976893
 21
-1.621976686
 31
0.0
  0
LINE
  5
AB
330
1F
100
AcDbEntity
  8
0
  6
Continuous
 62
     7
100
AcDbLine
 10
-0.1746023107
 20
-1.621976686
 30
0.0
 11
-0.1746023107
 21
-2.221976686
 31
0.0
  0
LINE
  5
AC
330
1F
100
AcDbEntity
  8
0
  6
Continuous
 62
     7
100
AcDbLine
 10
-0.1746023107
 20
-2.221976686
 30
0.0
 11
0.1753976893
 21
-2.221976686
 31
0.0
  0
LINE
  5
AD
330
1F
100
AcDbEntity
  8
0
  6
Continuous
 62
     7
100
AcDbLine
 10
0.1753976893
 20
-1.621976686
 30
0.0
 11
0.1753976893
 21
-2.221976686
 31
0.0
  0
LINE
  5
AE
330
1F
100
AcDbEntity
  8
0
  6
Continuous
 62
     7
100
AcDbLine
 10
-0.2396023107
 20
-0.101976686
 30
0.0
 11
-0.2396023107
 21
0.148023314
 31
0.0
  0
LINE
  5
AF
330
1F
100
AcDbEntity
  8
0
  6
Continuous
 62
     7
100
AcDbLine
 10
-0.2396023107
 20
0.148023314
 30
0.0
 11
0.1103976893
 21
0.148023314
 31
0.0
  0
LINE
  5
B0
330
1F
100
AcDbEntity
  8
0
  6
Continuous
 62
     7
100
AcDbLine
 10
0.1103976893
 20
-0.101976686
 30
0.0
 11
0.1103976893
 21
0.148023314
 31
0.0
  0
LINE
  5
B1
330
1F
100
AcDbEntity
  8
0
  6
Continuous
 62
     7
100
AcDbLine
 10
3.2817148282
 20
-0.3667303485
 30
0.0
 11
3.2817148282
 21
-0.3941327509
 31
0.0
  0
LINE
  5
B2
330
1F
100
AcDbEntity
  8
0
  6
Continuous
 62
     7
100
AcDbLine
 10
3.0570677993
 20
-0.3667303485
 30
0.0
 11
3.0570677993
 21
-0.5868075686
 31
0.0
  0
LINE
  5
B3
330
1F
100
AcDbEntity
  8
0
  6
Continuous
 62
     7
100
AcDbLine
 10
1.6596534135
 20
-1.621976686
 30
0.0
 11
2.0096534135
 21
-1.621976686
 31
0.0
  0
LINE
  5
B4
330
1F
100
AcDbEntity
  8
0
  6
Continuous
 62
     7
100
AcDbLine
 10
3.0570677993
 20
-0.5868075686
 30
0.0
 11
3.1902724325
 21
-0.5868075686
 31
0.0
  0
LINE
  5
B5
330
1F
100
AcDbEntity
  8
0
  6
Continuous
 62
     7
100
AcDbLine
 10
1.0896534135
 20
-0.101976686
 30
0.0
 11
1.3746534135
 21
-0.101976686
 31
0.0
  0
LINE
  5
B6
330
1F
100
AcDbEntity
  8
0
  6
Continuous
 62
     7
100
AcDbLine
 10
1.0896534135
 20
-0.101976686
 30
0.0
 11
1.0896534135
 21
-1.621976686
 31
0.0
  0
LINE
  5
B7
330
1F
100
AcDbEntity
  8
0
  6
Continuous
 62
     7
100
AcDbLine
 10
3.1902724325
 20
-0.5868075686
 30
0.0
 11
3.1902724325
 21
-0.614209971
 31
0.0
  0
LINE
  5
B8
330
1F
100
AcDbEntity
  8
0
  6
Continuous
 62
     7
100
AcDbLine
 10
1.0896534135
 20
-1.621976686
 30
0.0
 11
1.3096534135
 21
-1.621976686
 31
0.0
  0
LINE
  5
B9
330
1F
100
AcDbEntity
  8
0
  6
Continuous
 62
     7
100
AcDbLine
 10
2.0096534135
 20
-0.101976686
 30
0.0
 11
2.0096534135
 21
-1.621976686
 31
0.0
  0
LINE
  5
BA
330
1F
100
AcDbEntity
  8
0
  6
Continuous
 62
     7
100
AcDbLine
 10
1.3096534135
 20
-1.621976686
 30
0.0
 11
1.3096534135
 21
-2.221976686
 31
0.0
  0
LINE
  5
BB
330
1F
100
AcDbEntity
  8
0
  6
Continuous
 62
     7
100
AcDbLine
 10
1.3096534135
 20
-2.221976686
 30
0.0
 11
1.6596534135
 21
-2.221976686
 31
0.0
  0
LINE
  5
BC
330
1F
100
AcDbEntity
  8
0
  6
Continuous
 62
     7
100
AcDbLine
 10
1.6596534135
 20
-1.621976686
 30
0.0
 11
1.6596534135
 21
-2.221976686
 31
0.0
  0
LINE
  5
BD
330
1F
100
AcDbEntity
  8
0
  6
Continuous
 62
     7
100
AcDbLine
 10
1.3746534135
 20
-0.101976686
 30
0.0
 11
1.3746534135
 21
0.148023314
 31
0.0
  0
LINE
  5
BE
330
1F
100
AcDbEntity
  8
0
  6
Continuous
 62
     7
100
AcDbLine
 10
1.3746534135
 20
0.148023314
 30
0.0
 11
1.7246534135
 21
0.148023314
 31
0.0
  0
LINE
  5
BF
330
1F
100
AcDbEntity
  8
0
  6
Continuous
 62
     7
100
AcDbLine
 10
1.7246534135
 20
-0.101976686
 30
0.0
 11
1.7246534135
 21
0.148023314
 31
0.0
  0
LINE
  5
C0
330
1F
100
AcDbEntity
  8
0
  6
Continuous
 62
     7
100
AcDbLine
 10
3.1902724325
 20
-0.614209971
 30
0.0
 11
3.0228013901
 21
-0.614209971
 31
0.0
  0
LINE
  5
C1
330
1F
100
AcDbEntity
  8
0
  6
Continuous
 62
     7
100
AcDbLine
 10
3.0228013901
 20
-0.614209971
 30
0.0
 11
3.0228013901
 21
-0.3667303485
 31
0.0
  0
LINE
  5
C3
330
1F
100
AcDbEntity
  8
0
  6
Continuous
 62
     7
100
AcDbLine
 10
3.2175139598
 20
-0.3667303485
 30
0.0
 11
3.2517148282
 21
-0.3667303485
 31
0.0
  0
LINE
  5
C4
330
1F
100
AcDbEntity
  8
0
  6
Continuous
 62
     7
100
AcDbLine
 10
3.3328614501
 20
-0.614209971
 30
0.0
 11
3.2817148282
 21
-0.614209971
 31
0.0
  0
LINE
  5
C5
330
1F
100
AcDbEntity
  8
0
  6
Continuous
 62
     7
100
AcDbLine
 10
3.2175139598
 20
-0.614209971
 30
0.0
 11
3.2175139598
 21
-0.3667303485
 31
0.0
  0
LINE
  5
C6
330
1F
100
AcDbEntity
  8
0
  6
Continuous
 62
     7
100
AcDbLine
 10
-0.4275170181
 20
-6.0810926992
 30
0.0
 11
-0.4275170181
 21
-6.4310926992
 31
0.0
  0
LINE
  5
C7
330
1F
100
AcDbEntity
  8
0
  6
Continuous
 62
     7
100
AcDbLine
 10
-0.4275170181
 20
-6.4310926992
 30
0.0
 11
-0.0775170181
 21
-6.4310926992
 31
0.0
  0
LINE
  5
C8
330
1F
100
AcDbEntity
  8
0
  6
Continuous
 62
     7
100
AcDbLine
 10
3.2817148282
 20
-0.4709774528
 30
0.0
 11
3.3299656972
 21
-0.4709774528
 31
0.0
  0
LINE
  5
C9
330
1F
100
AcDbEntity
  8
0
  6
Continuous
 62
     7
100
AcDbLine
 10
-0.0775170181
 20
-6.4310926992
 30
0.0
 11
-0.0775170181
 21
-6.0810926992
 31
0.0
  0
LINE
  5
CA
330
1F
100
AcDbEntity
  8
0
  6
Continuous
 62
     7
100
AcDbLine
 10
3.3328614501
 20
-0.3941327509
 30
0.0
 11
3.2817148282
 21
-0.3941327509
 31
0.0
  0
LINE
  5
CB
330
1F
100
AcDbEntity
  8
0
  6
Continuous
 62
     7
100
AcDbLine
 10
1.0567387061
 20
-6.0810926992
 30
0.0
 11
1.0567387061
 21
-6.4310926992
 31
0.0
  0
LINE
  5
CC
330
1F
100
AcDbEntity
  8
0
  6
Continuous
 62
     7
100
AcDbLine
 10
3.2817148282
 20
-0.5868075686
 30
0.0
 11
3.3256220679
 21
-0.5868075686
 31
0.0
  0
LINE
  5
CD
330
1F
100
AcDbEntity
  8
0
  6
Continuous
 62
     7
100
AcDbLine
 10
-0.4925170181
 20
-4.3110926992
 30
0.0
 11
-0.4925170181
 21
-4.0610926992
 31
0.0
  0
LINE
  5
CE
330
1F
100
AcDbEntity
  8
0
  6
Continuous
 62
     7
100
AcDbLine
 10
-0.1425170181
 20
-4.0610926992
 30
0.0
 11
-0.4925170181
 21
-4.0610926992
 31
0.0
  0
LINE
  5
CF
330
1F
100
AcDbEntity
  8
0
  6
Continuous
 62
     7
100
AcDbLine
 10
-0.1425170181
 20
-4.3110926992
 30
0.0
 11
-0.1425170181
 21
-4.0610926992
 31
0.0
  0
LINE
  5
D0
330
1F
100
AcDbEntity
  8
0
  6
Continuous
 62
     7
100
AcDbLine
 10
-0.4275170181
 20
-5.8310926992
 30
0.0
 11
-0.4275170181
 21
-6.0810926992
 31
0.0
  0
LINE
  5
D1
330
1F
100
AcDbEntity
  8
0
  6
Continuous
 62
     7
100
AcDbLine
 10
-0.0775170181
 20
-5.8310926992
 30
0.0
 11
-0.0775170181
 21
-6.0810926992
 31
0.0
  0
LINE
  5
D2
330
1F
100
AcDbEntity
  8
0
  6
Continuous
 62
     7
100
AcDbLine
 10
-0.7775170181
 20
-4.3110926992
 30
0.0
 11
-0.7775170181
 21
-5.8310926992
 31
0.0
  0
LINE
  5
D3
330
1F
100
AcDbEntity
  8
0
  6
Continuous
 62
     7
100
AcDbLine
 10
0.1424829819
 20
-5.8310926992
 30
0.0
 11
-0.0775170181
 21
-5.8310926992
 31
0.0
  0
LINE
  5
D4
330
1F
100
AcDbEntity
  8
0
  6
Continuous
 62
     7
100
AcDbLine
 10
0.1424829819
 20
-4.3110926992
 30
0.0
 11
0.1424829819
 21
-5.8310926992
 31
0.0
  0
LINE
  5
D5
330
1F
100
AcDbEntity
  8
0
  6
Continuous
 62
     7
100
AcDbLine
 10
0.1424829819
 20
-4.3110926992
 30
0.0
 11
-0.1425170181
 21
-4.3110926992
 31
0.0
  0
LINE
  5
D6
330
1F
100
AcDbEntity
  8
0
  6
Continuous
 62
     7
100
AcDbLine
 10
-0.4275170181
 20
-5.8310926992
 30
0.0
 11
-0.7775170181
 21
-5.8310926992
 31
0.0
  0
LINE
  5
D7
330
1F
100
AcDbEntity
  8
0
  6
Continuous
 62
     7
100
AcDbLine
 10
1.1217387061
 20
-4.3110926992
 30
0.0
 11
1.1217387061
 21
-4.0610926992
 31
0.0
  0
LINE
  5
D8
330
1F
100
AcDbEntity
  8
0
  6
Continuous
 62
     7
100
AcDbLine
 10
1.4717387061
 20
-4.0610926992
 30
0.0
 11
1.1217387061
 21
-4.0610926992
 31
0.0
  0
LINE
  5
D9
330
1F
100
AcDbEntity
  8
0
  6
Continuous
 62
     7
100
AcDbLine
 10
1.4717387061
 20
-4.3110926992
 30
0.0
 11
1.4717387061
 21
-4.0610926992
 31
0.0
  0
LINE
  5
DA
330
1F
100
AcDbEntity
  8
0
  6
Continuous
 62
     7
100
AcDbLine
 10
1.0567387061
 20
-5.8310926992
 30
0.0
 11
1.0567387061
 21
-6.0810926992
 31
0.0
  0
LINE
  5
DB
330
1F
100
AcDbEntity
  8
0
  6
Continuous
 62
     7
100
AcDbLine
 10
1.4067387061
 20
-5.8310926992
 30
0.0
 11
1.4067387061
 21
-6.0810926992
 31
0.0
  0
LINE
  5
DC
330
1F
100
AcDbEntity
  8
0
  6
Continuous
 62
     7
100
AcDbLine
 10
0.8367387061
 20
-4.3110926992
 30
0.0
 11
0.8367387061
 21
-5.8310926992
 31
0.0
  0
LINE
  5
DD
330
1F
100
AcDbEntity
  8
0
  6
Continuous
 62
     7
100
AcDbLine
 10
1.7567387061
 20
-5.8310926992
 30
0.0
 11
1.4067387061
 21
-5.8310926992
 31
0.0
  0
LINE
  5
DE
330
1F
100
AcDbEntity
  8
0
  6
Continuous
 62
     7
100
AcDbLine
 10
1.7567387061
 20
-4.3110926992
 30
0.0
 11
1.7567387061
 21
-5.8310926992
 31
0.0
  0
LINE
  5
DF
330
1F
100
AcDbEntity
  8
0
  6
Continuous
 62
     7
100
AcDbLine
 10
1.7567387061
 20
-4.3110926992
 30
0.0
 11
1.4717387061
 21
-4.3110926992
 31
0.0
  0
LINE
  5
E0
330
1F
100
AcDbEntity
  8
0
  6
Continuous
 62
     7
100
AcDbLine
 10
-0.4925170181
 20
-4.3110926992
 30
0.0
 11
-0.7775170181
 21
-4.3110926992
 31
0.0
  0
LINE
  5
E1
330
1F
100
AcDbEntity
  8
0
  6
Continuous
 62
     7
100
AcDbLine
 10
1.0567387061
 20
-5.8310926992
 30
0.0
 11
0.8367387061
 21
-5.8310926992
 31
0.0
  0
LINE
  5
E2
330
1F
100
AcDbEntity
  8
0
  6
Continuous
 62
     7
100
AcDbLine
 10
1.1217387061
 20
-4.3110926992
 30
0.0
 11
0.8367387061
 21
-4.3110926992
 31
0.0
  0
LINE
  5
E3
330
1F
100
AcDbEntity
  8
0
  6
Continuous
 62
     7
100
AcDbLine
 10
3.622477004
 20
-4.9448246641
 30
0.0
 11
3.622477004
 21
-5.6910926992
 31
0.0
  0
LINE
  5
E4
330
1F
100
AcDbEntity
  8
0
  6
Continuous
 62
     7
100
AcDbLine
 10
3.622477004
 20
-4.9448246641
 30
0.0
 11
3.622477004
 21
-5.6910926992
 31
0.0
  0
LINE
  5
E5
330
1F
100
AcDbEntity
  8
0
  6
Continuous
 62
     7
100
AcDbLine
 10
3.3443534341
 20
-4.3110926992
 30
0.0
 11
3.6435290587
 21
-4.3110926992
 31
0.0
  0
LINE
  5
E6
330
1F
100
AcDbEntity
  8
0
  6
Continuous
 62
     7
100
AcDbLine
 10
3.3443534341
 20
-4.3110926992
 30
0.0
 11
3.6435290587
 21
-4.3110926992
 31
0.0
  0
LINE
  5
E7
330
1F
100
AcDbEntity
  8
0
  6
Continuous
 62
     7
100
AcDbLine
 10
2.5435290587
 20
-5.6910926992
 30
0.0
 11
2.5435290587
 21
-4.3110926992
 31
0.0
  0
LINE
  5
E8
330
1F
100
AcDbEntity
  8
0
  6
Continuous
 62
     7
100
AcDbLine
 10
3.622477004
 20
-6.4910926992
 30
0.0
 11
3.0348167853
 21
-6.4910926992
 31
0.0
  0
LINE
  5
E9
330
1F
100
AcDbEntity
  8
0
  6
Continuous
 62
     7
100
AcDbLine
 10
2.5435290587
 20
-4.3110926992
 30
0.0
 11
2.8443534341
 21
-4.3110926992
 31
0.0
  0
LINE
  5
EA
330
1F
100
AcDbEntity
  8
0
  6
Continuous
 62
     7
100
AcDbLine
 10
2.5435290587
 20
-4.3110926992
 30
0.0
 11
2.5435290587
 21
-5.6910926992
 31
0.0
  0
LINE
  5
EB
330
1F
100
AcDbEntity
  8
0
  6
Continuous
 62
     7
100
AcDbLine
 10
1.922477004
 20
-6.4910926992
 30
0.0
 11
2.5435290587
 21
-5.6910926992
 31
0.0
  0
LINE
  5
EC
330
1F
100
AcDbEntity
  8
0
  6
Continuous
 62
     7
100
AcDbLine
 10
1.922477004
 20
-6.4910926992
 30
0.0
 11
2.5148167853
 21
-6.4910926992
 31
0.0
  0
LINE
  5
ED
330
1F
100
AcDbEntity
  8
0
  6
Continuous
 62
     7
100
AcDbLine
 10
2.5148167853
 20
-7.0910926992
 30
0.0
 11
2.5148167853
 21
-6.4910926992
 31
0.0
  0
LINE
  5
EE
330
1F
100
AcDbEntity
  8
0
  6
Continuous
 62
     7
100
AcDbLine
 10
3.0348167853
 20
-7.0910926992
 30
0.0
 11
3.0348167853
 21
-6.4910926992
 31
0.0
  0
LINE
  5
EF
330
1F
100
AcDbEntity
  8
0
  6
Continuous
 62
     7
100
AcDbLine
 10
3.0348167853
 20
-7.0910926992
 30
0.0
 11
2.5148167853
 21
-7.0910926992
 31
0.0
  0
LINE
  5
F0
330
1F
100
AcDbEntity
  8
0
  6
Continuous
 62
     7
100
AcDbLine
 10
3.0348167853
 20
-6.4910926992
 30
0.0
 11
3.6271565665
 21
-6.4910926992
 31
0.0
  0
LINE
  5
F1
330
1F
100
AcDbEntity
  8
0
  6
Continuous
 62
     7
100
AcDbLine
 10
2.8443534341
 20
-4.3110926992
 30
0.0
 11
2.8443534341
 21
-4.0610926992
 31
0.0
  0
LINE
  5
F2
330
1F
100
AcDbEntity
  8
0
  6
Continuous
 62
     7
100
AcDbLine
 10
3.3443534341
 20
-4.0610926992
 30
0.0
 11
2.8443534341
 21
-4.0610926992
 31
0.0
  0
LINE
  5
F3
330
1F
100
AcDbEntity
  8
0
  6
Continuous
 62
     7
100
AcDbLine
 10
3.3443534341
 20
-4.3110926992
 30
0.0
 11
3.3443534341
 21
-4.0610926992
 31
0.0
  0
LINE
  5
F4
330
1F
100
AcDbEntity
  8
0
  6
Continuous
 62
     7
100
AcDbLine
 10
-2.7191952171
 20
-6.0710926992
 30
0.0
 11
-2.7191952171
 21
-5.6510926992
 31
0.0
  0
LINE
  5
F5
330
1F
100
AcDbEntity
  8
0
  6
Continuous
 62
     7
100
AcDbLine
 10
-2.4869442878
 20
-5.6510926992
 30
0.0
 11
-2.7191952171
 21
-5.6510926992
 31
0.0
  0
LINE
  5
F6
330
1F
100
AcDbEntity
  8
0
  6
Continuous
 62
     7
100
AcDbLine
 10
-2.4869442878
 20
-6.0710926992
 30
0.0
 11
-2.7191952171
 21
-6.0710926992
 31
0.0
  0
LINE
  5
F7
330
1F
100
AcDbEntity
  8
0
  6
Continuous
 62
     7
100
AcDbLine
 10
-2.4869442878
 20
-4.9421028456
 30
0.0
 11
-2.4869442878
 21
-4.5610926992
 31
0.0
  0
LINE
  5
F8
330
1F
100
AcDbEntity
  8
0
  6
Continuous
 62
     7
100
AcDbLine
 10
-2.2147328319
 20
-4.3110926992
 30
0.0
 11
-2.2147328319
 21
-4.0610926992
 31
0.0
  0
LINE
  5
F9
330
1F
100
AcDbEntity
  8
0
  6
Continuous
 62
     7
100
AcDbLine
 10
-1.6947328319
 20
-4.0610926992
 30
0.0
 11
-2.2147328319
 21
-4.0610926992
 31
0.0
  0
LINE
  5
FA
330
1F
100
AcDbEntity
  8
0
  6
Continuous
 62
     7
100
AcDbLine
 10
-1.6947328319
 20
-4.3110926992
 30
0.0
 11
-1.6947328319
 21
-4.0610926992
 31
0.0
  0
LINE
  5
FB
330
1F
100
AcDbEntity
  8
0
  6
Continuous
 62
     7
100
AcDbLine
 10
-1.8369442878
 20
-7.0910926992
 30
0.0
 11
-1.8369442878
 21
-6.4910926992
 31
0.0
  0
LINE
  5
FC
330
1F
100
AcDbEntity
  8
0
  6
Continuous
 62
     7
100
AcDbLine
 10
-1.3169442878
 20
-7.0910926992
 30
0.0
 11
-1.3169442878
 21
-6.4910926992
 31
0.0
  0
LINE
  5
FD
330
1F
100
AcDbEntity
  8
0
  6
Continuous
 62
     7
100
AcDbLine
 10
-1.3169442878
 20
-7.0910926992
 30
0.0
 11
-1.8369442878
 21
-7.0910926992
 31
0.0
  0
LINE
  5
FE
330
1F
100
AcDbEntity
  8
0
  6
Continuous
 62
     7
100
AcDbLine
 10
3.6435290587
 20
-4.3110926992
 30
0.0
 11
3.6435290587
 21
-4.5583708808
 31
0.0
  0
LINE
  5
FF
330
1F
100
AcDbEntity
  8
0
  6
Continuous
 62
     7
100
AcDbLine
 10
-1.4469442878
 20
-5.6510926992
 30
0.0
 11
-0.8069442878
 21
-6.4910926992
 31
0.0
  0
LINE
  5
100
330
1F
100
AcDbEntity
  8
0
  6
Continuous
 62
     7
100
AcDbLine
 10
-1.4469442878
 20
-4.3110926992
 30
0.0
 11
-1.4469442878
 21
-5.6510926992
 31
0.0
  0
LINE
  5
101
330
1F
100
AcDbEntity
  8
0
  6
Continuous
 62
     7
100
AcDbLine
 10
-2.4869442878
 20
-4.3110926992
 30
0.0
 11
-2.2147328319
 21
-4.3110926992
 31
0.0
  0
LINE
  5
102
330
1F
100
AcDbEntity
  8
0
  6
Continuous
 62
     7
100
AcDbLine
 10
-2.4869442878
 20
-6.4910926992
 30
0.0
 11
-2.4869442878
 21
-6.0710926992
 31
0.0
  0
LINE
  5
103
330
1F
100
AcDbEntity
  8
0
  6
Continuous
 62
     7
100
AcDbLine
 10
2.5148167853
 20
-6.4910926992
 30
0.0
 11
1.922477004
 21
-6.4910926992
 31
0.0
  0
LINE
  5
104
330
1F
100
AcDbEntity
  8
0
  6
Continuous
 62
     7
100
AcDbLine
 10
2.5148167853
 20
-6.4910926992
 30
0.0
 11
1.922477004
 21
-6.4910926992
 31
0.0
  0
LINE
  5
105
330
1F
100
AcDbEntity
  8
0
  6
Continuous
 62
     7
100
AcDbLine
 10
3.9119501659
 20
-5.6910926992
 30
0.0
 11
3.622477004
 21
-5.6910926992
 31
0.0
  0
LINE
  5
106
330
1F
100
AcDbEntity
  8
0
  6
Continuous
 62
     7
100
AcDbLine
 10
3.9119501659
 20
-6.109141039
 30
0.0
 11
3.9119501659
 21
-5.6910926992
 31
0.0
  0
LINE
  5
107
330
1F
100
AcDbEntity
  8
0
  6
Continuous
 62
     7
100
AcDbLine
 10
3.9119501659
 20
-6.109141039
 30
0.0
 11
3.622477004
 21
-6.109141039
 31
0.0
  0
LINE
  5
108
330
1F
100
AcDbEntity
  8
0
  6
Continuous
 62
     7
100
AcDbLine
 10
3.622477004
 20
-6.109141039
 30
0.0
 11
3.622477004
 21
-6.4910926992
 31
0.0
  0
LINE
  5
109
330
1F
100
AcDbEntity
  8
0
  6
Continuous
 62
     7
100
AcDbLine
 10
3.622477004
 20
-6.109141039
 30
0.0
 11
3.622477004
 21
-6.4910926992
 31
0.0
  0
LINE
  5
10A
330
1F
100
AcDbEntity
  8
0
  6
Continuous
 62
     7
100
AcDbLine
 10
3.9119501659
 20
-4.9448246641
 30
0.0
 11
3.622477004
 21
-4.9448246641
 31
0.0
  0
LINE
  5
10B
330
1F
100
AcDbEntity
  8
0
  6
Continuous
 62
     7
100
AcDbLine
 10
3.9119501659
 20
-4.5583708808
 30
0.0
 11
3.9119501659
 21
-4.9448246641
 31
0.0
  0
LINE
  5
10C
330
1F
100
AcDbEntity
  8
0
  6
Continuous
 62
     7
100
AcDbLine
 10
3.9119501659
 20
-4.5583708808
 30
0.0
 11
3.6435290587
 21
-4.5583708808
 31
0.0
  0
LINE
  5
10D
330
1F
100
AcDbEntity
  8
0
  6
Continuous
 62
     7
100
AcDbLine
 10
-0.8069442878
 20
-6.4910926992
 30
0.0
 11
-1.3169442878
 21
-6.4910926992
 31
0.0
  0
LINE
  5
10E
330
1F
100
AcDbEntity
  8
0
  6
Continuous
 62
     7
100
AcDbLine
 10
2.5435290587
 20
-5.6910926992
 30
0.0
 11
1.922477004
 21
-6.4910926992
 31
0.0
  0
LINE
  5
10F
330
1F
100
AcDbEntity
  8
0
  6
Continuous
 62
     7
100
AcDbLine
 10
2.5435290587
 20
-4.3110926992
 30
0.0
 11
2.5435290587
 21
-5.6910926992
 31
0.0
  0
LINE
  5
110
330
1F
100
AcDbEntity
  8
0
  6
Continuous
 62
     7
100
AcDbLine
 10
3.6271565665
 20
-6.4910926992
 30
0.0
 11
3.0348167853
 21
-6.4910926992
 31
0.0
  0
LINE
  5
111
330
1F
100
AcDbEntity
  8
0
  6
Continuous
 62
     7
100
AcDbLine
 10
3.6435290587
 20
-4.3110926992
 30
0.0
 11
3.6435290587
 21
-4.5583708808
 31
0.0
  0
LINE
  5
112
330
1F
100
AcDbEntity
  8
0
  6
Continuous
 62
     7
100
AcDbLine
 10
2.5435290587
 20
-4.3110926992
 30
0.0
 11
2.8443534341
 21
-4.3110926992
 31
0.0
  0
LINE
  5
113
330
1F
100
AcDbEntity
  8
0
  6
Continuous
 62
     7
100
AcDbLine
 10
-1.8369442878
 20
-6.4910926992
 30
0.0
 11
-2.4869442878
 21
-6.4910926992
 31
0.0
  0
LINE
  5
114
330
1F
100
AcDbEntity
  8
0
  6
Continuous
 62
     7
100
AcDbLine
 10
-2.4869442878
 20
-5.6510926992
 30
0.0
 11
-2.4869442878
 21
-4.9421028456
 31
0.0
  0
LINE
  5
115
330
1F
100
AcDbEntity
  8
0
  6
Continuous
 62
     7
100
AcDbLine
 10
-2.4869442878
 20
-4.5610926992
 30
0.0
 11
-2.4869442878
 21
-4.3110926992
 31
0.0
  0
LINE
  5
116
330
1F
100
AcDbEntity
  8
0
  6
Continuous
 62
     7
100
AcDbLine
 10
-1.6947328319
 20
-4.3110926992
 30
0.0
 11
-1.4469442878
 21
-4.3110926992
 31
0.0
  0
LINE
  5
117
330
1F
100
AcDbEntity
  8
0
  6
Continuous
 62
     7
100
AcDbLine
 10
3.3256220679
 20
-0.4983798552
 30
0.0
 11
3.2817148282
 21
-0.4983798552
 31
0.0
  0
LINE
  5
118
330
1F
100
AcDbEntity
  8
0
  6
Continuous
 62
     7
100
AcDbLine
 10
3.2817148282
 20
-0.3667303485
 30
0.0
 11
3.3343093266
 21
-0.3667303485
 31
0.0
  0
LINE
  5
119
330
1F
100
AcDbEntity
  8
0
  6
Continuous
 62
     7
100
AcDbLine
 10
3.2517148282
 20
-0.614209971
 30
0.0
 11
3.2175139598
 21
-0.614209971
 31
0.0
  0
LINE
  5
11A
330
1F
100
AcDbEntity
  8
0
  6
Continuous
 62
     7
100
AcDbLine
 10
3.2817148282
 20
-0.5868075686
 30
0.0
 11
3.2817148282
 21
-0.614209971
 31
0.0
  0
LINE
  5
11B
330
1F
100
AcDbEntity
  8
0
  6
Continuous
 62
     7
100
AcDbLine
 10
3.2817148282
 20
-0.4709774528
 30
0.0
 11
3.2817148282
 21
-0.4983798552
 31
0.0
  0
LINE
  5
11C
330
1F
100
AcDbEntity
  8
0
  6
CENTERX2
 62
     7
100
AcDbLine
 10
3.0448727337
 20
-4.6113574034
 30
0.0
 11
3.0448727337
 21
-4.5798284215
 31
0.0
  0
LINE
  5
11D
330
1F
100
AcDbEntity
  8
0
  6
Continuous
 62
     7
100
AcDbLine
 10
3.0105429424
 20
-4.5798284215
 30
0.0
 11
3.0448727337
 21
-4.5798284215
 31
0.0
  0
LINE
  5
11E
330
1F
100
AcDbEntity
  8
0
  6
Continuous
 62
     7
100
AcDbLine
 10
3.0448727337
 20
-4.5798284215
 30
0.0
 11
3.0448727337
 21
-4.8273080439
 31
0.0
  0
LINE
  5
11F
330
1F
100
AcDbEntity
  8
0
  6
Continuous
 62
     7
100
AcDbLine
 10
3.0748727337
 20
-4.5798284215
 30
0.0
 11
3.0748727337
 21
-4.6072308239
 31
0.0
  0
LINE
  5
120
330
1F
100
AcDbEntity
  8
0
  6
Continuous
 62
     7
100
AcDbLine
 10
3.1258904328
 20
-4.8273080439
 30
0.0
 11
3.0748727337
 21
-4.8273080439
 31
0.0
  0
LINE
  5
121
330
1F
100
AcDbEntity
  8
0
  6
Continuous
 62
     7
100
AcDbLine
 10
3.0105429424
 20
-4.8273080439
 30
0.0
 11
3.0105429424
 21
-4.5798284215
 31
0.0
  0
LINE
  5
122
330
1F
100
AcDbEntity
  8
0
  6
Continuous
 62
     7
100
AcDbLine
 10
3.1258904328
 20
-4.6072308239
 30
0.0
 11
3.0748727337
 21
-4.6072308239
 31
0.0
  0
LINE
  5
123
330
1F
100
AcDbEntity
  8
0
  6
Continuous
 62
     7
100
AcDbLine
 10
3.1186510505
 20
-4.7114779281
 30
0.0
 11
3.0748727337
 21
-4.7114779281
 31
0.0
  0
LINE
  5
124
330
1F
100
AcDbEntity
  8
0
  6
Continuous
 62
     7
100
AcDbLine
 10
3.0748727337
 20
-4.5798284215
 30
0.0
 11
3.1273383092
 21
-4.5798284215
 31
0.0
  0
LINE
  5
125
330
1F
100
AcDbEntity
  8
0
  6
Continuous
 62
     7
100
AcDbLine
 10
3.0748727337
 20
-4.6840755257
 30
0.0
 11
3.0748727337
 21
-4.7114779281
 31
0.0
  0
LINE
  5
126
330
1F
100
AcDbEntity
  8
0
  6
Continuous
 62
     7
100
AcDbLine
 10
3.0748727337
 20
-4.6840755257
 30
0.0
 11
3.1229946799
 21
-4.6840755257
 31
0.0
  0
LINE
  5
127
330
1F
100
AcDbEntity
  8
0
  6
Continuous
 62
     7
100
AcDbLine
 10
3.0448727337
 20
-4.7114779281
 30
0.0
 11
3.0448093517
 21
-4.7114779281
 31
0.0
  0
LINE
  5
128
330
1F
100
AcDbEntity
  8
0
  6
Continuous
 62
     7
100
AcDbLine
 10
3.0748727337
 20
-4.7999056415
 30
0.0
 11
3.1186510505
 21
-4.7999056415
 31
0.0
  0
LINE
  5
129
330
1F
100
AcDbEntity
  8
0
  6
Continuous
 62
     7
100
AcDbLine
 10
3.0448727337
 20
-4.8273080439
 30
0.0
 11
3.0105429424
 21
-4.8273080439
 31
0.0
  0
LINE
  5
12A
330
1F
100
AcDbEntity
  8
0
  6
Continuous
 62
     7
100
AcDbLine
 10
3.0748727337
 20
-4.7999056415
 30
0.0
 11
3.0748727337
 21
-4.8273080439
 31
0.0
  0
LINE
  5
12B
330
1F
100
AcDbEntity
  8
0
  6
CENTERX2
 62
     7
100
AcDbLine
 10
-2.1348108906
 20
-4.5765465465
 30
0.0
 11
-2.1348108906
 21
-4.656992324
 31
0.0
  0
LINE
  5
12C
330
1F
100
AcDbEntity
  8
0
  6
CENTERX2
 62
     7
100
AcDbLine
 10
-1.9067868257
 20
-4.6052977723
 30
0.0
 11
-1.9067868257
 21
-4.5779944229
 31
0.0
  0
LINE
  5
12D
330
1F
100
AcDbEntity
  8
0
  6
Continuous
 62
     7
100
AcDbLine
 10
-2.1348108906
 20
-4.5765465465
 30
0.0
 11
-2.1348108906
 21
-4.824133419
 31
0.0
  0
LINE
  5
12E
330
1F
100
AcDbEntity
  8
0
  6
Continuous
 62
     7
100
AcDbLine
 10
-2.1048108906
 20
-4.5765465465
 30
0.0
 11
-2.1048108906
 21
-4.6039489489
 31
0.0
  0
LINE
  5
12F
330
1F
100
AcDbEntity
  8
0
  6
Continuous
 62
     7
100
AcDbLine
 10
-2.1684319937
 20
-4.5765465465
 30
0.0
 11
-2.1348108906
 21
-4.5765465465
 31
0.0
  0
LINE
  5
130
330
1F
100
AcDbEntity
  8
0
  6
Continuous
 62
     7
100
AcDbLine
 10
-1.9067868257
 20
-4.5779944229
 30
0.0
 11
-1.9067868257
 21
-4.8254740454
 31
0.0
  0
LINE
  5
131
330
1F
100
AcDbEntity
  8
0
  6
Continuous
 62
     7
100
AcDbLine
 10
-1.8767868257
 20
-4.5779944229
 30
0.0
 11
-1.8767868257
 21
-4.6053968253
 31
0.0
  0
LINE
  5
132
330
1F
100
AcDbEntity
  8
0
  6
Continuous
 62
     7
100
AcDbLine
 10
-2.0270227273
 20
-4.7126469326
 30
0.0
 11
-1.9705555458
 21
-4.824133419
 31
0.0
  0
LINE
  5
133
330
1F
100
AcDbEntity
  8
0
  6
Continuous
 62
     7
100
AcDbLine
 10
-1.9705555458
 20
-4.824133419
 30
0.0
 11
-2.006752457
 21
-4.824133419
 31
0.0
  0
LINE
  5
134
330
1F
100
AcDbEntity
  8
0
  6
Continuous
 62
     7
100
AcDbLine
 10
-2.006752457
 20
-4.824133419
 30
0.0
 11
-2.0588760091
 21
-4.7168833118
 31
0.0
  0
LINE
  5
135
330
1F
100
AcDbEntity
  8
0
  6
Continuous
 62
     7
100
AcDbLine
 10
-2.0588760091
 20
-4.7168833118
 30
0.0
 11
-2.1048108906
 21
-4.7168833118
 31
0.0
  0
LINE
  5
136
330
1F
100
AcDbEntity
  8
0
  6
Continuous
 62
     7
100
AcDbLine
 10
-2.1341655844
 20
-4.824133419
 30
0.0
 11
-2.1684319937
 21
-4.824133419
 31
0.0
  0
LINE
  5
137
330
1F
100
AcDbEntity
  8
0
  6
Continuous
 62
     7
100
AcDbLine
 10
-2.1684319937
 20
-4.824133419
 30
0.0
 11
-2.1684319937
 21
-4.5765465465
 31
0.0
  0
LINE
  5
138
330
1F
100
AcDbEntity
  8
0
  6
Continuous
 62
     7
100
AcDbLine
 10
-2.1048108906
 20
-4.6894809094
 30
0.0
 11
-2.048740874
 21
-4.6894809094
 31
0.0
  0
LINE
  5
139
330
1F
100
AcDbEntity
  8
0
  6
Continuous
 62
     7
100
AcDbLine
 10
-2.0530845034
 20
-4.6039489489
 30
0.0
 11
-2.1048108906
 21
-4.6039489489
 31
0.0
  0
LINE
  5
13A
330
1F
100
AcDbEntity
  8
0
  6
Continuous
 62
     7
100
AcDbLine
 10
-1.9408472661
 20
-4.5779944229
 30
0.0
 11
-1.9067868257
 21
-4.5779944229
 31
0.0
  0
LINE
  5
13B
330
1F
100
AcDbEntity
  8
0
  6
Continuous
 62
     7
100
AcDbLine
 10
-1.8254997758
 20
-4.8254740454
 30
0.0
 11
-1.8767868257
 21
-4.8254740454
 31
0.0
  0
LINE
  5
13C
330
1F
100
AcDbEntity
  8
0
  6
Continuous
 62
     7
100
AcDbLine
 10
-1.9408472661
 20
-4.8254740454
 30
0.0
 11
-1.9408472661
 21
-4.5779944229
 31
0.0
  0
LINE
  5
13D
330
1F
100
AcDbEntity
  8
0
  6
Continuous
 62
     7
100
AcDbLine
 10
-1.8767868257
 20
-4.6822415272
 30
0.0
 11
-1.8283955287
 21
-4.6822415272
 31
0.0
  0
LINE
  5
13E
330
1F
100
AcDbEntity
  8
0
  6
Continuous
 62
     7
100
AcDbLine
 10
-1.8254997758
 20
-4.6053968253
 30
0.0
 11
-1.8767868257
 21
-4.6053968253
 31
0.0
  0
LINE
  5
13F
330
1F
100
AcDbEntity
  8
0
  6
Continuous
 62
     7
100
AcDbLine
 10
-1.8767868257
 20
-4.798071643
 30
0.0
 11
-1.832739158
 21
-4.798071643
 31
0.0
  0
LINE
  5
140
330
1F
100
AcDbEntity
  8
0
  6
Continuous
 62
     7
100
AcDbLine
 10
-1.832739158
 20
-4.7096439296
 30
0.0
 11
-1.8767868257
 21
-4.7096439296
 31
0.0
  0
LINE
  5
141
330
1F
100
AcDbEntity
  8
0
  6
Continuous
 62
     7
100
AcDbLine
 10
-2.1048108906
 20
-4.5765465465
 30
0.0
 11
-2.0458451211
 21
-4.5765465465
 31
0.0
  0
LINE
  5
142
330
1F
100
AcDbEntity
  8
0
  6
Continuous
 62
     7
100
AcDbLine
 10
-2.1048108906
 20
-4.6894809094
 30
0.0
 11
-2.1048108906
 21
-4.7168833118
 31
0.0
  0
LINE
  5
143
330
1F
100
AcDbEntity
  8
0
  6
Continuous
 62
     7
100
AcDbLine
 10
-1.8767868257
 20
-4.5779944229
 30
0.0
 11
-1.8240518993
 21
-4.5779944229
 31
0.0
  0
LINE
  5
144
330
1F
100
AcDbEntity
  8
0
  6
Continuous
 62
     7
100
AcDbLine
 10
-1.9067868257
 20
-4.8254740454
 30
0.0
 11
-1.9408472661
 21
-4.8254740454
 31
0.0
  0
LINE
  5
145
330
1F
100
AcDbEntity
  8
0
  6
Continuous
 62
     7
100
AcDbLine
 10
-1.8767868257
 20
-4.6822415272
 30
0.0
 11
-1.8767868257
 21
-4.7096439296
 31
0.0
  0
LINE
  5
146
330
1F
100
AcDbEntity
  8
0
  6
Continuous
 62
     7
100
AcDbLine
 10
-1.8767868257
 20
-4.798071643
 30
0.0
 11
-1.8767868257
 21
-4.8254740454
 31
0.0
  0
LINE
  5
147
330
1F
100
AcDbEntity
  8
0
  6
CENTERX2
 62
     7
100
AcDbLine
 10
-0.471984449
 20
-4.6595045044
 30
0.0
 11
-0.471984449
 21
-4.626144321
 31
0.0
  0
LINE
  5
148
330
1F
100
AcDbEntity
  8
0
  6
Continuous
 62
     7
100
AcDbLine
 10
-0.5065529206
 20
-4.626144321
 30
0.0
 11
-0.471984449
 21
-4.626144321
 31
0.0
  0
LINE
  5
149
330
1F
100
AcDbEntity
  8
0
  6
Continuous
 62
     7
100
AcDbLine
 10
-0.471984449
 20
-4.626144321
 30
0.0
 11
-0.471984449
 21
-4.7664810863
 31
0.0
  0
LINE
  5
14A
330
1F
100
AcDbEntity
  8
0
  6
Continuous
 62
     7
100
AcDbLine
 10
-0.4437460337
 20
-4.626144321
 30
0.0
 11
-0.4437460337
 21
-4.6535467234
 31
0.0
  0
LINE
  5
14B
330
1F
100
AcDbEntity
  8
0
  6
Continuous
 62
     7
100
AcDbLine
 10
-0.3651436542
 20
-4.7622447071
 30
0.0
 11
-0.3086764727
 21
-4.8737311936
 31
0.0
  0
LINE
  5
14C
330
1F
100
AcDbEntity
  8
0
  6
Continuous
 62
     7
100
AcDbLine
 10
-0.3086764727
 20
-4.8737311936
 30
0.0
 11
-0.3448733839
 21
-4.8737311936
 31
0.0
  0
LINE
  5
14D
330
1F
100
AcDbEntity
  8
0
  6
Continuous
 62
     7
100
AcDbLine
 10
-0.3448733839
 20
-4.8737311936
 30
0.0
 11
-0.3969969361
 21
-4.7664810863
 31
0.0
  0
LINE
  5
14E
330
1F
100
AcDbEntity
  8
0
  6
Continuous
 62
     7
100
AcDbLine
 10
-0.3969969361
 20
-4.7664810863
 30
0.0
 11
-0.4437460337
 21
-4.7664810863
 31
0.0
  0
LINE
  5
14F
330
1F
100
AcDbEntity
  8
0
  6
Continuous
 62
     7
100
AcDbLine
 10
-0.4722865114
 20
-4.7664810863
 30
0.0
 11
-0.4722865114
 21
-4.8737311936
 31
0.0
  0
LINE
  5
150
330
1F
100
AcDbEntity
  8
0
  6
Continuous
 62
     7
100
AcDbLine
 10
-0.4722865114
 20
-4.8737311936
 30
0.0
 11
-0.5065529206
 21
-4.8737311936
 31
0.0
  0
LINE
  5
151
330
1F
100
AcDbEntity
  8
0
  6
Continuous
 62
     7
100
AcDbLine
 10
-0.5065529206
 20
-4.8737311936
 30
0.0
 11
-0.5065529206
 21
-4.626144321
 31
0.0
  0
LINE
  5
152
330
1F
100
AcDbEntity
  8
0
  6
Continuous
 62
     7
100
AcDbLine
 10
-0.3912054303
 20
-4.6535467234
 30
0.0
 11
-0.4437460337
 21
-4.6535467234
 31
0.0
  0
LINE
  5
153
330
1F
100
AcDbEntity
  8
0
  6
Continuous
 62
     7
100
AcDbLine
 10
-0.2924817065
 20
-4.6275921974
 30
0.0
 11
-0.0941226332
 21
-4.6275921974
 31
0.0
  0
LINE
  5
154
330
1F
100
AcDbEntity
  8
0
  6
Continuous
 62
     7
100
AcDbLine
 10
-0.0941226332
 20
-4.6275921974
 30
0.0
 11
-0.0941226332
 21
-4.6549945998
 31
0.0
  0
LINE
  5
155
330
1F
100
AcDbEntity
  8
0
  6
Continuous
 62
     7
100
AcDbLine
 10
-0.0941226332
 20
-4.6549945998
 30
0.0
 11
-0.1766515907
 21
-4.6549945998
 31
0.0
  0
LINE
  5
156
330
1F
100
AcDbEntity
  8
0
  6
Continuous
 62
     7
100
AcDbLine
 10
-0.1766515907
 20
-4.6549945998
 30
0.0
 11
-0.1766515907
 21
-4.87517907
 31
0.0
  0
LINE
  5
157
330
1F
100
AcDbEntity
  8
0
  6
Continuous
 62
     7
100
AcDbLine
 10
-0.1766515907
 20
-4.87517907
 30
0.0
 11
-0.210918
 21
-4.87517907
 31
0.0
  0
LINE
  5
158
330
1F
100
AcDbEntity
  8
0
  6
Continuous
 62
     7
100
AcDbLine
 10
-0.210918
 20
-4.87517907
 30
0.0
 11
-0.210918
 21
-4.6549945998
 31
0.0
  0
LINE
  5
159
330
1F
100
AcDbEntity
  8
0
  6
Continuous
 62
     7
100
AcDbLine
 10
-0.210918
 20
-4.6549945998
 30
0.0
 11
-0.2924817065
 21
-4.6549945998
 31
0.0
  0
LINE
  5
15A
330
1F
100
AcDbEntity
  8
0
  6
Continuous
 62
     7
100
AcDbLine
 10
-0.2924817065
 20
-4.6549945998
 30
0.0
 11
-0.2924817065
 21
-4.6275921974
 31
0.0
  0
LINE
  5
15B
330
1F
100
AcDbEntity
  8
0
  6
Continuous
 62
     7
100
AcDbLine
 10
-0.4437460337
 20
-4.626144321
 30
0.0
 11
-0.383966048
 21
-4.626144321
 31
0.0
  0
LINE
  5
15C
330
1F
100
AcDbEntity
  8
0
  6
Continuous
 62
     7
100
AcDbLine
 10
-0.4437460337
 20
-4.7390786839
 30
0.0
 11
-0.4437460337
 21
-4.7664810863
 31
0.0
  0
LINE
  5
15D
330
1F
100
AcDbEntity
  8
0
  6
Continuous
 62
     7
100
AcDbLine
 10
-0.4437460337
 20
-4.7390786839
 30
0.0
 11
-0.3868618009
 21
-4.7390786839
 31
0.0
  0
LINE
  5
15E
330
1F
100
AcDbEntity
  8
0
  6
Continuous
 62
     7
100
AcDbLine
 10
-0.471984449
 20
-4.7664810863
 30
0.0
 11
-0.4722865114
 21
-4.7664810863
 31
0.0
  0
LINE
  5
15F
330
1F
100
AcDbEntity
  8
0
  6
Continuous
 62
     7
100
AcDbLine
 10
1.3138624238
 20
-4.6274869883
 30
0.0
 11
1.4292470392
 21
-4.8774869883
 31
0.0
  0
LINE
  5
160
330
1F
100
AcDbEntity
  8
0
  6
Continuous
 62
     7
100
AcDbLine
 10
1.4292470392
 20
-4.8774869883
 30
0.0
 11
1.4048580168
 21
-4.8774869883
 31
0.0
  0
LINE
  5
161
330
1F
100
AcDbEntity
  8
0
  6
Continuous
 62
     7
100
AcDbLine
 10
1.4048580168
 20
-4.8774869883
 30
0.0
 11
1.3678988822
 21
-4.7973587832
 31
0.0
  0
LINE
  5
162
330
1F
100
AcDbEntity
  8
0
  6
Continuous
 62
     7
100
AcDbLine
 10
1.3678988822
 20
-4.7973587832
 30
0.0
 11
1.32739164
 21
-4.7973587832
 31
0.0
  0
LINE
  5
163
330
1F
100
AcDbEntity
  8
0
  6
Continuous
 62
     7
100
AcDbLine
 10
1.254567552
 20
-4.7973587832
 30
0.0
 11
1.2165567347
 21
-4.8774869883
 31
0.0
  0
LINE
  5
164
330
1F
100
AcDbEntity
  8
0
  6
Continuous
 62
     7
100
AcDbLine
 10
1.2165567347
 20
-4.8774869883
 30
0.0
 11
1.192067552
 21
-4.8774869883
 31
0.0
  0
LINE
  5
165
330
1F
100
AcDbEntity
  8
0
  6
Continuous
 62
     7
100
AcDbLine
 10
1.192067552
 20
-4.8774869883
 30
0.0
 11
1.3106572956
 21
-4.6274869883
 31
0.0
  0
LINE
  5
166
330
1F
100
AcDbEntity
  8
0
  6
Continuous
 62
     7
100
AcDbLine
 10
1.3106572956
 20
-4.6274869883
 30
0.0
 11
1.3138624238
 21
-4.6274869883
 31
0.0
  0
LINE
  5
167
330
1F
100
AcDbEntity
  8
0
  6
Continuous
 62
     7
100
AcDbLine
 10
1.3120094591
 20
-4.6762149531
 30
0.0
 11
1.2667370232
 21
-4.7717177576
 31
0.0
  0
LINE
  5
168
330
1F
100
AcDbEntity
  8
0
  6
Continuous
 62
     7
100
AcDbLine
 10
1.2667370232
 20
-4.7717177576
 30
0.0
 11
1.2967387061
 21
-4.7717177576
 31
0.0
  0
LINE
  5
169
330
1F
100
AcDbEntity
  8
0
  6
Continuous
 62
     7
100
AcDbLine
 10
1.3560799719
 20
-4.7717177576
 30
0.0
 11
1.3120094591
 21
-4.6762149531
 31
0.0
  0
LINE
  5
16A
330
1F
100
AcDbEntity
  8
0
  6
Continuous
 62
     7
100
AcDbLine
 10
1.0567387061
 20
-6.4310926992
 30
0.0
 11
1.4048580168
 21
-6.4310926992
 31
0.0
  0
LINE
  5
16B
330
1F
100
AcDbEntity
  8
0
  6
Continuous
 62
     7
100
AcDbLine
 10
1.32739164
 20
-4.7717177576
 30
0.0
 11
1.3560799719
 21
-4.7717177576
 31
0.0
  0
LINE
  5
16C
330
1F
100
AcDbEntity
  8
0
  6
Continuous
 62
     7
100
AcDbLine
 10
1.2967387061
 20
-4.7973587832
 30
0.0
 11
1.254567552
 21
-4.7973587832
 31
0.0
  0
LINE
  5
16D
330
1F
100
AcDbEntity
  8
0
  6
Continuous
 62
     7
100
AcDbLine
 10
1.32739164
 20
-4.7717177576
 30
0.0
 11
1.32739164
 21
-4.7973587832
 31
0.0
  0
LINE
  5
16E
330
1F
100
AcDbEntity
  8
0
  6
Continuous
 62
     7
100
AcDbLine
 10
1.2967387061
 20
-4.7717177576
 30
0.0
 11
1.2967387061
 21
-4.7973587832
 31
0.0
  0
LINE
  5
16F
330
1F
100
AcDbEntity
  8
0
  6
Continuous
 62
     7
100
AcDbLine
 10
1.4048580168
 20
-6.4310926992
 30
0.0
 11
1.4067387061
 21
-6.0810926992
 31
0.0
  0
SPLINE
  5
17A
330
1F
100
AcDbEntity
  8
0
  6
Continuous
 62
     7
100
AcDbSpline
210
0.0
220
0.0
230
1.0
 70
     8
 71
     3
 72
     9
 73
     5
 74
     0
 42
0.00000001
 43
0.00000001
 40
0.0
 40
0.0
 40
0.0
 40
0.0
 40
0.5596008904286471
 40
1.0
 40
1.0
 40
1.0
 40
1.0
 10
3.334307295130932
 20
-0.3667303485285983
 30
0.0
 10
3.363088615196844
 20
-0.3724318870982884
 30
0.0
 10
3.382089249340321
 20
-0.3855527423509921
 30
0.0
 10
3.376023607879257
 20
-0.3805454032971437
 30
0.0
 10
3.382089249340321
 20
-0.3855527423509921
 30
0.0
  0
SPLINE
  5
17B
330
1F
100
AcDbEntity
  8
0
  6
Continuous
 62
     7
100
AcDbSpline
210
0.0
220
0.0
230
1.0
 70
     8
 71
     3
 72
     9
 73
     5
 74
     0
 42
0.00000001
 43
0.00000001
 40
0.0
 40
0.0
 40
0.0
 40
0.0
 40
0.5583007198269627
 40
1.0
 40
1.0
 40
1.0
 40
1.0
 10
3.382087223173126
 20
-0.3855527423509921
 30
0.0
 10
3.396442649305515
 20
-0.4097984137518226
 30
0.0
 10
3.399463766714839
 20
-0.4318847886830384
 30
0.0
 10
3.399070407580755
 20
-0.4243088498553532
 30
0.0
 10
3.399463766714839
 20
-0.4318847886830384
 30
0.0
  0
SPLINE
  5
17C
330
1F
100
AcDbEntity
  8
0
  6
Continuous
 62
     7
100
AcDbSpline
210
0.0
220
0.0
230
1.0
 70
     8
 71
     3
 72
     9
 73
     5
 74
     0
 42
0.00000001
 43
0.00000001
 40
0.0
 40
0.0
 40
0.0
 40
0.0
 40
0.5593617659501896
 40
1.0
 40
1.0
 40
1.0
 40
1.0
 10
3.399461742461197
 20
-0.4318847886830384
 30
0.0
 10
3.394510802396496
 20
-0.455478322130385
 30
0.0
 10
3.383537125788199
 20
-0.4709774527757026
 30
0.0
 10
3.387714498500268
 20
-0.4660377635282144
 30
0.0
 10
3.383537125788199
 20
-0.4709774527757026
 30
0.0
  0
SPLINE
  5
17D
330
1F
100
AcDbEntity
  8
0
  6
Continuous
 62
     7
100
AcDbSpline
210
0.0
220
0.0
230
1.0
 70
     8
 71
     3
 72
     9
 73
     5
 74
     0
 42
0.00000001
 43
0.00000001
 40
0.0
 40
0.0
 40
0.0
 40
0.0
 40
0.5594152616467218
 40
1.0
 40
1.0
 40
1.0
 40
1.0
 10
3.383535099780466
 20
-0.4709774527757025
 30
0.0
 10
3.372122823995166
 20
-0.4795334601307008
 30
0.0
 10
3.361818979070051
 20
-0.4840083408065905
 30
0.0
 10
3.365350210991713
 20
-0.4826829367505053
 30
0.0
 10
3.361818979070051
 20
-0.4840083408065905
 30
0.0
  0
SPLINE
  5
17E
330
1F
100
AcDbEntity
  8
0
  6
Continuous
 62
     7
100
AcDbSpline
210
0.0
220
0.0
230
1.0
 70
     8
 71
     3
 72
     9
 73
     5
 74
     0
 42
0.00000001
 43
0.00000001
 40
0.0
 40
0.0
 40
0.0
 40
0.0
 40
0.5600390404020769
 40
1.0
 40
1.0
 40
1.0
 40
1.0
 10
3.361816950670378
 20
-0.4840083408065906
 30
0.0
 10
3.378170325128464
 20
-0.4913461398870994
 30
0.0
 10
3.389328631579704
 20
-0.4999349817332315
 30
0.0
 10
3.385733025877797
 20
-0.4968649344363811
 30
0.0
 10
3.389328631579704
 20
-0.4999349817332315
 30
0.0
  0
SPLINE
  5
17F
330
1F
100
AcDbEntity
  8
0
  6
Continuous
 62
     7
100
AcDbSpline
210
0.0
220
0.0
230
1.0
 70
     8
 71
     3
 72
     9
 73
     5
 74
     0
 42
0.00000001
 43
0.00000001
 40
0.0
 40
0.0
 40
0.0
 40
0.0
 40
0.5588487308652533
 40
1.0
 40
1.0
 40
1.0
 40
1.0
 10
3.389326606209823
 20
-0.4999349817332315
 30
0.0
 10
3.403481921576837
 20
-0.5225549030285683
 30
0.0
 10
3.406703148954222
 20
-0.543371275169525
 30
0.0
 10
3.406214143628359
 20
-0.5362148230007108
 30
0.0
 10
3.406703148954222
 20
-0.543371275169525
 30
0.0
  0
SPLINE
  5
180
330
1F
100
AcDbEntity
  8
0
  6
Continuous
 62
     7
100
AcDbSpline
210
0.0
220
0.0
230
1.0
 70
     8
 71
     3
 72
     9
 73
     5
 74
     0
 42
0.00000001
 43
0.00000001
 40
0.0
 40
0.0
 40
0.0
 40
0.0
 40
0.5593303578388834
 40
1.0
 40
1.0
 40
1.0
 40
1.0
 10
3.406701125497893
 20
-0.5433712751695249
 30
0.0
 10
3.399994763548869
 20
-0.5756987264233169
 30
0.0
 10
3.384985002236075
 20
-0.5969427037409535
 30
0.0
 10
3.39070259173713
 20
-0.5901717030864897
 30
0.0
 10
3.384985002236075
 20
-0.5969427037409536
 30
0.0
  0
SPLINE
  5
181
330
1F
100
AcDbEntity
  8
0
  6
Continuous
 62
     7
100
AcDbSpline
210
0.0
220
0.0
230
1.0
 70
     8
 71
     3
 72
     9
 73
     5
 74
     0
 42
0.00000001
 43
0.00000001
 40
0.0
 40
0.0
 40
0.0
 40
0.0
 40
0.5575737545523898
 40
1.0
 40
1.0
 40
1.0
 40
1.0
 10
3.384982976387805
 20
-0.5969427037409535
 30
0.0
 10
3.357451888400024
 20
-0.6115582582861431
 30
0.0
 10
3.332861450112523
 20
-0.6142099710082207
 30
0.0
 10
3.341260668538552
 20
-0.6139856878912243
 30
0.0
 10
3.332861450112523
 20
-0.6142099710082207
 30
0.0
  0
SPLINE
  5
182
330
1F
100
AcDbEntity
  8
0
  6
Continuous
 62
     7
100
AcDbSpline
210
0.0
220
0.0
230
1.0
 70
     8
 71
     3
 72
     9
 73
     5
 74
     0
 42
0.00000001
 43
0.00000001
 40
0.0
 40
0.0
 40
0.0
 40
0.0
 40
0.5591902945280487
 40
1.0
 40
1.0
 40
1.0
 40
1.0
 10
3.329963665308915
 20
-0.4709774527757025
 30
0.0
 10
3.344831517642916
 20
-0.467811508754126
 30
0.0
 10
3.354579596830669
 20
-0.4608423176405674
 30
0.0
 10
3.351475134830147
 20
-0.4634940400588541
 30
0.0
 10
3.354579596830669
 20
-0.4608423176405674
 30
0.0
  0
SPLINE
  5
183
330
1F
100
AcDbEntity
  8
0
  6
Continuous
 62
     7
100
AcDbSpline
210
0.0
220
0.0
230
1.0
 70
     8
 71
     3
 72
     9
 73
     5
 74
     0
 42
0.00000001
 43
0.00000001
 40
0.0
 40
0.0
 40
0.0
 40
0.0
 40
0.558465433849631
 40
1.0
 40
1.0
 40
1.0
 40
1.0
 10
3.354577567633681
 20
-0.4608423176405674
 30
0.0
 10
3.364131221440052
 20
-0.444953490069757
 30
0.0
 10
3.366162608413681
 20
-0.430436912235162
 30
0.0
 10
3.365891833506952
 20
-0.4354196039888638
 30
0.0
 10
3.366162608413681
 20
-0.430436912235162
 30
0.0
  0
SPLINE
  5
184
330
1F
100
AcDbEntity
  8
0
  6
Continuous
 62
     7
100
AcDbSpline
210
0.0
220
0.0
230
1.0
 70
     8
 71
     3
 72
     9
 73
     5
 74
     0
 42
0.00000001
 43
0.00000001
 40
0.0
 40
0.0
 40
0.0
 40
0.0
 40
0.5590251529589908
 40
0.9999999999999999
 40
0.9999999999999999
 40
0.9999999999999999
 40
0.9999999999999999
 10
3.366160580492395
 20
-0.430436912235162
 30
0.0
 10
3.362464052236631
 20
-0.4138082946780295
 30
0.0
 10
3.354579596830669
 20
-0.4029272597255095
 30
0.0
 10
3.357572914714599
 20
-0.4063899282273215
 30
0.0
 10
3.354579596830669
 20
-0.4029272597255095
 30
0.0
  0
SPLINE
  5
185
330
1F
100
AcDbEntity
  8
0
  6
Continuous
 62
     7
100
AcDbSpline
210
0.0
220
0.0
230
1.0
 70
     8
 71
     3
 72
     9
 73
     5
 74
     0
 42
0.00000001
 43
0.00000001
 40
0.0
 40
0.0
 40
0.0
 40
0.0
 40
0.5588199449546771
 40
1.0
 40
1.0
 40
1.0
 40
1.0
 10
3.354577567633681
 20
-0.4029272597255095
 30
0.0
 10
3.343289962506416
 20
-0.3957623941309873
 30
0.0
 10
3.332861450112522
 20
-0.3941327509310007
 30
0.0
 10
3.336449174436376
 20
-0.3943798664636539
 30
0.0
 10
3.332861450112522
 20
-0.3941327509310007
 30
0.0
  0
SPLINE
  5
186
330
1F
100
AcDbEntity
  8
0
  6
Continuous
 62
     7
100
AcDbSpline
210
0.0
220
0.0
230
1.0
 70
     8
 71
     3
 72
     9
 73
     5
 74
     0
 42
0.00000001
 43
0.00000001
 40
0.0
 40
0.0
 40
0.0
 40
0.0
 40
0.560637176553185
 40
1.0
 40
1.0
 40
1.0
 40
1.0
 10
3.325620035486897
 20
-0.5868075686058184
 30
0.0
 10
3.34554620870031
 20
-0.5836521742799226
 30
0.0
 10
3.358923226174298
 20
-0.5752245570228067
 30
0.0
 10
3.354628162819497
 20
-0.5784698144683367
 30
0.0
 10
3.358923226174298
 20
-0.5752245570228067
 30
0.0
  0
SPLINE
  5
187
330
1F
100
AcDbEntity
  8
0
  6
Continuous
 62
     7
100
AcDbSpline
210
0.0
220
0.0
230
1.0
 70
     8
 71
     3
 72
     9
 73
     5
 74
     0
 42
0.00000001
 43
0.00000001
 40
0.0
 40
0.0
 40
0.0
 40
0.0
 40
0.5590699869772523
 40
1.0
 40
1.0
 40
1.0
 40
1.0
 10
3.358921197455699
 20
-0.5752245570228067
 30
0.0
 10
3.369478593143455
 20
-0.5586625455010644
 30
0.0
 10
3.371954114205187
 20
-0.5433712751695248
 30
0.0
 10
3.371558916115281
 20
-0.5486321754263053
 30
0.0
 10
3.371954114205187
 20
-0.5433712751695248
 30
0.0
  0
SPLINE
  5
188
330
1F
100
AcDbEntity
  8
0
  6
Continuous
 62
     7
100
AcDbSpline
210
0.0
220
0.0
230
1.0
 70
     8
 71
     3
 72
     9
 73
     5
 74
     0
 42
0.00000001
 43
0.00000001
 40
0.0
 40
0.0
 40
0.0
 40
0.0
 40
0.5602432754370019
 40
0.9999999999999999
 40
0.9999999999999999
 40
0.9999999999999999
 40
0.9999999999999999
 10
3.371952086921752
 20
-0.5433712751695249
 30
0.0
 10
3.368684403898534
 20
-0.5242629498275592
 30
0.0
 10
3.360371102622175
 20
-0.511517993316243
 30
0.0
 10
3.363563517097146
 20
-0.5156011167463818
 30
0.0
 10
3.360371102622175
 20
-0.511517993316243
 30
0.0
  0
SPLINE
  5
189
330
1F
100
AcDbEntity
  8
0
  6
Continuous
 62
     7
100
AcDbSpline
210
0.0
220
0.0
230
1.0
 70
     8
 71
     3
 72
     9
 73
     5
 74
     0
 42
0.00000001
 43
0.00000001
 40
0.0
 40
0.0
 40
0.0
 40
0.0
 40
0.5583693540845726
 40
1.0
 40
1.0
 40
1.0
 40
1.0
 10
3.360369074063038
 20
-0.511517993316243
 30
0.0
 10
3.342212849361692
 20
-0.5006333615733284
 30
0.0
 10
3.325622067873141
 20
-0.4983798551781048
 30
0.0
 10
3.331316504015807
 20
-0.4986632291394252
 30
0.0
 10
3.325622067873141
 20
-0.4983798551781048
 30
0.0
  0
SPLINE
  5
18A
330
1F
100
AcDbEntity
  8
0
  6
Continuous
 62
     7
100
AcDbSpline
210
0.0
220
0.0
230
1.0
 70
     8
 71
     3
 72
     9
 73
     5
 74
     0
 42
0.00000001
 43
0.00000001
 40
0.0
 40
0.0
 40
0.0
 40
0.0
 40
0.5596029094601517
 40
1.0
 40
1.0
 40
1.0
 40
1.0
 10
3.127336032747284
 20
-4.579828421450743
 30
0.0
 10
3.156117597859423
 20
-4.585529960020434
 30
0.0
 10
3.175118232002901
 20
-4.598650815273138
 30
0.0
 10
3.169052589848123
 20
-4.59364347642644
 30
0.0
 10
3.175118232002901
 20
-4.598650815273138
 30
0.0
  0
SPLINE
  5
18B
330
1F
100
AcDbEntity
  8
0
  6
Continuous
 62
     7
100
AcDbSpline
210
0.0
220
0.0
230
1.0
 70
     8
 71
     3
 72
     9
 73
     5
 74
     0
 42
0.00000001
 43
0.00000001
 40
0.0
 40
0.0
 40
0.0
 40
0.0
 40
0.5583018124692101
 40
1.0
 40
1.0
 40
1.0
 40
1.0
 10
3.175115960789478
 20
-4.598650815273137
 30
0.0
 10
3.189471631968094
 20
-4.622896486673968
 30
0.0
 10
3.192492749377417
 20
-4.644982861605182
 30
0.0
 10
3.192099399292552
 20
-4.637406917049657
 30
0.0
 10
3.192492749377417
 20
-4.644982861605182
 30
0.0
  0
SPLINE
  5
18C
330
1F
100
AcDbEntity
  8
0
  6
Continuous
 62
     7
100
AcDbSpline
210
0.0
220
0.0
230
1.0
 70
     8
 71
     3
 72
     9
 73
     5
 74
     0
 42
0.00000001
 43
0.00000001
 40
0.0
 40
0.0
 40
0.0
 40
0.0
 40
0.5593612514326336
 40
1.0
 40
1.0
 40
1.0
 40
1.0
 10
3.192490480077548
 20
-4.644982861605182
 30
0.0
 10
3.187539785059076
 20
-4.66857639505253
 30
0.0
 10
3.176566108450777
 20
-4.684075525697848
 30
0.0
 10
3.180743495348042
 20
-4.679135839564363
 30
0.0
 10
3.176566108450777
 20
-4.684075525697848
 30
0.0
  0
SPLINE
  5
18D
330
1F
100
AcDbEntity
  8
0
  6
Continuous
 62
     7
100
AcDbSpline
210
0.0
220
0.0
230
1.0
 70
     8
 71
     3
 72
     9
 73
     5
 74
     0
 42
0.00000001
 43
0.00000001
 40
0.0
 40
0.0
 40
0.0
 40
0.0
 40
0.5594118736885951
 40
1.0
 40
1.0
 40
1.0
 40
1.0
 10
3.176563837396817
 20
-4.684075525697848
 30
0.0
 10
3.165151806657744
 20
-4.692631533052847
 30
0.0
 10
3.154847961732629
 20
-4.697106413728735
 30
0.0
 10
3.158379199496753
 20
-4.695781017752665
 30
0.0
 10
3.154847961732629
 20
-4.697106413728735
 30
0.0
  0
SPLINE
  5
18E
330
1F
100
AcDbEntity
  8
0
  6
Continuous
 62
     7
100
AcDbSpline
210
0.0
220
0.0
230
1.0
 70
     8
 71
     3
 72
     9
 73
     5
 74
     0
 42
0.00000001
 43
0.00000001
 40
0.0
 40
0.0
 40
0.0
 40
0.0
 40
0.5600421137156159
 40
0.9999999999999999
 40
0.9999999999999999
 40
0.9999999999999999
 40
0.9999999999999999
 10
3.154845688286729
 20
-4.697106413728735
 30
0.0
 10
3.171199307791043
 20
-4.704444212809244
 30
0.0
 10
3.182357614242282
 20
-4.713033054655376
 30
0.0
 10
3.178762010041012
 20
-4.709963003532986
 30
0.0
 10
3.182357614242282
 20
-4.713033054655376
 30
0.0
  0
SPLINE
  5
18F
330
1F
100
AcDbEntity
  8
0
  6
Continuous
 62
     7
100
AcDbSpline
210
0.0
220
0.0
230
1.0
 70
     8
 71
     3
 72
     9
 73
     5
 74
     0
 42
0.00000001
 43
0.00000001
 40
0.0
 40
0.0
 40
0.0
 40
0.0
 40
0.5588499318853796
 40
1.0
 40
1.0
 40
1.0
 40
1.0
 10
3.182355343826174
 20
-4.713033054655376
 30
0.0
 10
3.196510904239415
 20
-4.735652975950713
 30
0.0
 10
3.1997321316168
 20
-4.756469348091669
 30
0.0
 10
3.199243134919101
 20
-4.749312890119747
 30
0.0
 10
3.199732131616801
 20
-4.75646934809167
 30
0.0
  0
SPLINE
  5
190
330
1F
100
AcDbEntity
  8
0
  6
Continuous
 62
     7
100
AcDbSpline
210
0.0
220
0.0
230
1.0
 70
     8
 71
     3
 72
     9
 73
     5
 74
     0
 42
0.00000001
 43
0.00000001
 40
0.0
 40
0.0
 40
0.0
 40
0.0
 40
0.5593299862462473
 40
1.0
 40
1.0
 40
1.0
 40
1.0
 10
3.199729863114245
 20
-4.756469348091669
 30
0.0
 10
3.193023746211447
 20
-4.788796799345461
 30
0.0
 10
3.178013984898652
 20
-4.810040776663098
 30
0.0
 10
3.183731588596363
 20
-4.803269779090414
 30
0.0
 10
3.178013984898652
 20
-4.810040776663098
 30
0.0
  0
SPLINE
  5
191
330
1F
100
AcDbEntity
  8
0
  6
Continuous
 62
     7
100
AcDbSpline
210
0.0
220
0.0
230
1.0
 70
     8
 71
     3
 72
     9
 73
     5
 74
     0
 42
0.00000001
 43
0.00000001
 40
0.0
 40
0.0
 40
0.0
 40
0.0
 40
0.5575720416231764
 40
1.0
 40
1.0
 40
1.0
 40
1.0
 10
3.178011714004156
 20
-4.810040776663098
 30
0.0
 10
3.150480871062601
 20
-4.824656331208288
 30
0.0
 10
3.1258904327751
 20
-4.827308043930365
 30
0.0
 10
3.134289655137144
 20
-4.827083769305239
 30
0.0
 10
3.1258904327751
 20
-4.827308043930365
 30
0.0
  0
SPLINE
  5
192
330
1F
100
AcDbEntity
  8
0
  6
Continuous
 62
     7
100
AcDbSpline
210
0.0
220
0.0
230
1.0
 70
     8
 71
     3
 72
     9
 73
     5
 74
     0
 42
0.00000001
 43
0.00000001
 40
0.0
 40
0.0
 40
0.0
 40
0.0
 40
0.5591941809332561
 40
1.0
 40
1.0
 40
1.0
 40
1.0
 10
3.122992402925266
 20
-4.684075525697848
 30
0.0
 10
3.137860500305495
 20
-4.68090958167627
 30
0.0
 10
3.147608579493248
 20
-4.673940390562712
 30
0.0
 10
3.144504116830802
 20
-4.676592112974221
 30
0.0
 10
3.147608579493248
 20
-4.673940390562712
 30
0.0
  0
SPLINE
  5
193
330
1F
100
AcDbEntity
  8
0
  6
Continuous
 62
     7
100
AcDbSpline
210
0.0
220
0.0
230
1.0
 70
     8
 71
     3
 72
     9
 73
     5
 74
     0
 42
0.00000001
 43
0.00000001
 40
0.0
 40
0.0
 40
0.0
 40
0.0
 40
0.5584671132998499
 40
1.0
 40
1.0
 40
1.0
 40
1.0
 10
3.147606305250033
 20
-4.673940390562712
 30
0.0
 10
3.15716020410263
 20
-4.658051562991902
 30
0.0
 10
3.159191591076258
 20
-4.643534985157307
 30
0.0
 10
3.158920825095027
 20
-4.648517682660095
 30
0.0
 10
3.159191591076258
 20
-4.643534985157307
 30
0.0
  0
SPLINE
  5
194
330
1F
100
AcDbEntity
  8
0
  6
Continuous
 62
     7
100
AcDbSpline
210
0.0
220
0.0
230
1.0
 70
     8
 71
     3
 72
     9
 73
     5
 74
     0
 42
0.00000001
 43
0.00000001
 40
0.0
 40
0.0
 40
0.0
 40
0.0
 40
0.559024383449603
 40
1.0
 40
1.0
 40
1.0
 40
1.0
 10
3.159189318108746
 20
-4.643534985157307
 30
0.0
 10
3.155493034899211
 20
-4.626906367600175
 30
0.0
 10
3.147608579493248
 20
-4.616025332647654
 30
0.0
 10
3.15060191155219
 20
-4.619487997853344
 30
0.0
 10
3.147608579493248
 20
-4.616025332647654
 30
0.0
  0
SPLINE
  5
195
330
1F
100
AcDbEntity
  8
0
  6
Continuous
 62
     7
100
AcDbSpline
210
0.0
220
0.0
230
1.0
 70
     8
 71
     3
 72
     9
 73
     5
 74
     0
 42
0.00000001
 43
0.00000001
 40
0.0
 40
0.0
 40
0.0
 40
0.0
 40
0.5588161298601939
 40
1.0
 40
1.0
 40
1.0
 40
1.0
 10
3.147606305250033
 20
-4.616025332647654
 30
0.0
 10
3.136318945168994
 20
-4.608860467053132
 30
0.0
 10
3.1258904327751
 20
-4.607230823853146
 30
0.0
 10
3.129478162149172
 20
-4.607477930388922
 30
0.0
 10
3.1258904327751
 20
-4.607230823853146
 30
0.0
  0
SPLINE
  5
196
330
1F
100
AcDbEntity
  8
0
  6
Continuous
 62
     7
100
AcDbSpline
210
0.0
220
0.0
230
1.0
 70
     8
 71
     3
 72
     9
 73
     5
 74
     0
 42
0.00000001
 43
0.00000001
 40
0.0
 40
0.0
 40
0.0
 40
0.0
 40
0.5606401316408531
 40
1.0
 40
1.0
 40
1.0
 40
1.0
 10
3.118648773103248
 20
-4.799905641527964
 30
0.0
 10
3.138575191362889
 20
-4.796750247202066
 30
0.0
 10
3.151952208836877
 20
-4.78832262994495
 30
0.0
 10
3.147657144723421
 20
-4.791567886629999
 30
0.0
 10
3.151952208836878
 20
-4.788322629944951
 30
0.0
  0
SPLINE
  5
197
330
1F
100
AcDbEntity
  8
0
  6
Continuous
 62
     7
100
AcDbSpline
210
0.0
220
0.0
230
1.0
 70
     8
 71
     3
 72
     9
 73
     5
 74
     0
 42
0.00000001
 43
0.00000001
 40
0.0
 40
0.0
 40
0.0
 40
0.0
 40
0.55907164018239
 40
0.9999999999999999
 40
0.9999999999999999
 40
0.9999999999999999
 40
0.9999999999999999
 10
3.151949935072051
 20
-4.78832262994495
 30
0.0
 10
3.162507575806035
 20
-4.771760618423208
 30
0.0
 10
3.164983096867764
 20
-4.75646934809167
 30
0.0
 10
3.164587907264628
 20
-4.761730254171851
 30
0.0
 10
3.164983096867764
 20
-4.75646934809167
 30
0.0
  0
SPLINE
  5
198
330
1F
100
AcDbEntity
  8
0
  6
Continuous
 62
     7
100
AcDbSpline
210
0.0
220
0.0
230
1.0
 70
     8
 71
     3
 72
     9
 73
     5
 74
     0
 42
0.00000001
 43
0.00000001
 40
0.0
 40
0.0
 40
0.0
 40
0.0
 40
0.5602427505107977
 40
1.0
 40
1.0
 40
1.0
 40
1.0
 10
3.164980824538103
 20
-4.756469348091669
 30
0.0
 10
3.161713386561112
 20
-4.737361022749704
 30
0.0
 10
3.153400085284753
 20
-4.724616066238388
 30
0.0
 10
3.156592513959738
 20
-4.728699187129106
 30
0.0
 10
3.153400085284753
 20
-4.724616066238388
 30
0.0
  0
SPLINE
  5
199
330
1F
100
AcDbEntity
  8
0
  6
Continuous
 62
     7
100
AcDbSpline
210
0.0
220
0.0
230
1.0
 70
     8
 71
     3
 72
     9
 73
     5
 74
     0
 42
0.00000001
 43
0.00000001
 40
0.0
 40
0.0
 40
0.0
 40
0.0
 40
0.558366905821619
 40
1.0
 40
1.0
 40
1.0
 40
1.0
 10
3.153397811679389
 20
-4.724616066238388
 30
0.0
 10
3.13524183202427
 20
-4.713731434495473
 30
0.0
 10
3.118651050535719
 20
-4.711477928100249
 30
0.0
 10
3.124345491360179
 20
-4.711761293176953
 30
0.0
 10
3.118651050535719
 20
-4.711477928100249
 30
0.0
  0
SPLINE
  5
19A
330
1F
100
AcDbEntity
  8
0
  6
Continuous
 62
     7
100
AcDbSpline
210
0.0
220
0.0
230
1.0
 70
     8
 71
     3
 72
     9
 73
     5
 74
     0
 42
0.00000001
 43
0.00000001
 40
0.0
 40
0.0
 40
0.0
 40
0.0
 40
0.5595827658465171
 40
0.9999999999999999
 40
0.9999999999999999
 40
0.9999999999999999
 40
0.9999999999999999
 10
-2.045844952891192
 20
-4.576546546456799
 30
0.0
 10
-2.017065832476195
 20
-4.582248085026489
 30
0.0
 10
-1.998065198332716
 20
-4.595368940279192
 30
0.0
 10
-2.004130833567001
 20
-4.59036159936777
 30
0.0
 10
-1.998065198332716
 20
-4.595368940279192
 30
0.0
  0
SPLINE
  5
19B
330
1F
100
AcDbEntity
  8
0
  6
Continuous
 62
     7
100
AcDbSpline
210
0.0
220
0.0
230
1.0
 70
     8
 71
     3
 72
     9
 73
     5
 74
     0
 42
0.00000001
 43
0.00000001
 40
0.0
 40
0.0
 40
0.0
 40
0.0
 40
0.5580713218795799
 40
0.9999999999999999
 40
0.9999999999999999
 40
0.9999999999999999
 40
0.9999999999999999
 10
-1.998065024848998
 20
-4.595368940279193
 30
0.0
 10
-1.982361253692361
 20
-4.622715810411195
 30
0.0
 10
-1.979242804510323
 20
-4.647492492402745
 30
0.0
 10
-1.979596035527116
 20
-4.639003715383359
 30
0.0
 10
-1.979242804510323
 20
-4.647492492402745
 30
0.0
  0
SPLINE
  5
19C
330
1F
100
AcDbEntity
  8
0
  6
Continuous
 62
     7
100
AcDbSpline
210
0.0
220
0.0
230
1.0
 70
     8
 71
     3
 72
     9
 73
     5
 74
     0
 42
0.00000001
 43
0.00000001
 40
0.0
 40
0.0
 40
0.0
 40
0.0
 40
0.5603464945287648
 40
1.0
 40
1.0
 40
1.0
 40
1.0
 10
-1.979242628953588
 20
-4.647492492402745
 30
0.0
 10
-1.984557624082016
 20
-4.678737314972049
 30
0.0
 10
-1.998065198332717
 20
-4.699616044526296
 30
0.0
 10
-1.992878471935878
 20
-4.692922918040136
 30
0.0
 10
-1.998065198332717
 20
-4.699616044526296
 30
0.0
  0
SPLINE
  5
19D
330
1F
100
AcDbEntity
  8
0
  6
Continuous
 62
     7
100
AcDbSpline
210
0.0
220
0.0
230
1.0
 70
     8
 71
     3
 72
     9
 73
     5
 74
     0
 42
0.00000001
 43
0.00000001
 40
0.0
 40
0.0
 40
0.0
 40
0.0
 40
0.5587872330706494
 40
1.0
 40
1.0
 40
1.0
 40
1.0
 10
-1.998065024848998
 20
-4.699616044526296
 30
0.0
 10
-2.013280918711529
 20
-4.709152782450011
 30
0.0
 10
-2.027022727290245
 20
-4.712646932557185
 30
0.0
 10
-2.022315092498512
 20
-4.711779002184
 30
0.0
 10
-2.027022727290245
 20
-4.712646932557185
 30
0.0
  0
SPLINE
  5
19E
330
1F
100
AcDbEntity
  8
0
  6
Continuous
 62
     7
100
AcDbSpline
210
0.0
220
0.0
230
1.0
 70
     8
 71
     3
 72
     9
 73
     5
 74
     0
 42
0.00000001
 43
0.00000001
 40
0.0
 40
0.0
 40
0.0
 40
0.0
 40
0.5591554028419496
 40
1.0
 40
1.0
 40
1.0
 40
1.0
 10
-2.048740706105871
 20
-4.689480909391161
 30
0.0
 10
-2.033875053582245
 20
-4.686314965369585
 30
0.0
 10
-2.024126974394493
 20
-4.679345774256027
 30
0.0
 10
-2.027231430453661
 20
-4.681997496731076
 30
0.0
 10
-2.024126974394493
 20
-4.679345774256027
 30
0.0
  0
SPLINE
  5
19F
330
1F
100
AcDbEntity
  8
0
  6
Continuous
 62
     7
100
AcDbSpline
210
0.0
220
0.0
230
1.0
 70
     8
 71
     3
 72
     9
 73
     5
 74
     0
 42
0.00000001
 43
0.00000001
 40
0.0
 40
0.0
 40
0.0
 40
0.0
 40
0.557204457368814
 40
1.0
 40
1.0
 40
1.0
 40
1.0
 10
-2.024126803781104
 20
-4.679345774256027
 30
0.0
 10
-2.015512743629672
 20
-4.662471321677167
 30
0.0
 10
-2.013991839259358
 20
-4.647492492402745
 30
0.0
 10
-2.014105866203613
 20
-4.652601237688216
 30
0.0
 10
-2.013991839259358
 20
-4.647492492402745
 30
0.0
  0
SPLINE
  5
1A0
330
1F
100
AcDbEntity
  8
0
  6
Continuous
 62
     7
100
AcDbSpline
210
0.0
220
0.0
230
1.0
 70
     8
 71
     3
 72
     9
 73
     5
 74
     0
 42
0.00000001
 43
0.00000001
 40
0.0
 40
0.0
 40
0.0
 40
0.0
 40
0.5602479877121022
 40
1.0
 40
1.0
 40
1.0
 40
1.0
 10
-2.01399166752973
 20
-4.647492492402745
 30
0.0
 10
-2.017261549566011
 20
-4.628384167060779
 30
0.0
 10
-2.02557485084237
 20
-4.615639210549463
 30
0.0
 10
-2.022382563792692
 20
-4.619722356775593
 30
0.0
 10
-2.02557485084237
 20
-4.615639210549463
 30
0.0
  0
SPLINE
  5
1A1
330
1F
100
AcDbEntity
  8
0
  6
Continuous
 62
     7
100
AcDbSpline
210
0.0
220
0.0
230
1.0
 70
     8
 71
     3
 72
     9
 73
     5
 74
     0
 42
0.00000001
 43
0.00000001
 40
0.0
 40
0.0
 40
0.0
 40
0.0
 40
0.5592254304853057
 40
0.9999999999999999
 40
0.9999999999999999
 40
0.9999999999999999
 40
0.9999999999999999
 10
-2.025574680388443
 20
-4.615639210549464
 30
0.0
 10
-2.039823998204108
 20
-4.606235819537559
 30
0.0
 10
-2.053084503352022
 20
-4.603948948859202
 30
0.0
 10
-2.048515252592054
 20
-4.604334761342138
 30
0.0
 10
-2.053084503352022
 20
-4.603948948859203
 30
0.0
  0
SPLINE
  5
1A2
330
1F
100
AcDbEntity
  8
0
  6
Continuous
 62
     7
100
AcDbSpline
210
0.0
220
0.0
230
1.0
 70
     8
 71
     3
 72
     9
 73
     5
 74
     0
 42
0.00000001
 43
0.00000001
 40
0.0
 40
0.0
 40
0.0
 40
0.0
 40
0.559577909428262
 40
1.0
 40
1.0
 40
1.0
 40
1.0
 10
-1.824051141738892
 20
-4.577994422904676
 30
0.0
 10
-1.795272610682973
 20
-4.583695961474366
 30
0.0
 10
-1.776271976539495
 20
-4.59681681672707
 30
0.0
 10
-1.782337610105518
 20
-4.591809475318524
 30
0.0
 10
-1.776271976539495
 20
-4.59681681672707
 30
0.0
  0
SPLINE
  5
1A3
330
1F
100
AcDbEntity
  8
0
  6
Continuous
 62
     7
100
AcDbSpline
210
0.0
220
0.0
230
1.0
 70
     8
 71
     3
 72
     9
 73
     5
 74
     0
 42
0.00000001
 43
0.00000001
 40
0.0
 40
0.0
 40
0.0
 40
0.0
 40
0.5582882844386271
 40
1.0
 40
1.0
 40
1.0
 40
1.0
 10
-1.776271213696698
 20
-4.59681681672707
 30
0.0
 10
-1.761918576574301
 20
-4.6210624881279
 30
0.0
 10
-1.758897459164978
 20
-4.643148863059116
 30
0.0
 10
-1.759290921307747
 20
-4.63557298942404
 30
0.0
 10
-1.758897459164978
 20
-4.643148863059116
 30
0.0
  0
SPLINE
  5
1A4
330
1F
100
AcDbEntity
  8
0
  6
Continuous
 62
     7
100
AcDbSpline
210
0.0
220
0.0
230
1.0
 70
     8
 71
     3
 72
     9
 73
     5
 74
     0
 42
0.00000001
 43
0.00000001
 40
0.0
 40
0.0
 40
0.0
 40
0.0
 40
0.5593676235999453
 40
1.0
 40
1.0
 40
1.0
 40
1.0
 10
-1.758896694408627
 20
-4.643148863059116
 30
0.0
 10
-1.763850423483319
 20
-4.666742396506462
 30
0.0
 10
-1.774824100091618
 20
-4.68224152715178
 30
0.0
 10
-1.770646888822995
 20
-4.677301802453004
 30
0.0
 10
-1.774824100091618
 20
-4.68224152715178
 30
0.0
  0
SPLINE
  5
1A5
330
1F
100
AcDbEntity
  8
0
  6
Continuous
 62
     7
100
AcDbSpline
210
0.0
220
0.0
230
1.0
 70
     8
 71
     3
 72
     9
 73
     5
 74
     0
 42
0.00000001
 43
0.00000001
 40
0.0
 40
0.0
 40
0.0
 40
0.0
 40
0.5594538200914383
 40
1.0
 40
1.0
 40
1.0
 40
1.0
 10
-1.774823337089358
 20
-4.68224152715178
 30
0.0
 10
-1.786238401884649
 20
-4.690797534506778
 30
0.0
 10
-1.796542246809765
 20
-4.695272415182668
 30
0.0
 10
-1.793011081363735
 20
-4.693946919180882
 30
0.0
 10
-1.796542246809765
 20
-4.695272415182668
 30
0.0
  0
SPLINE
  5
1A6
330
1F
100
AcDbEntity
  8
0
  6
Continuous
 62
     7
100
AcDbSpline
210
0.0
220
0.0
230
1.0
 70
     8
 71
     3
 72
     9
 73
     5
 74
     0
 42
0.00000001
 43
0.00000001
 40
0.0
 40
0.0
 40
0.0
 40
0.0
 40
0.5600040587973694
 40
0.9999999999999999
 40
0.9999999999999999
 40
0.9999999999999999
 40
0.9999999999999999
 10
-1.796541486199447
 20
-4.695272415182668
 30
0.0
 10
-1.780190900751352
 20
-4.702610214263177
 30
0.0
 10
-1.769032594300113
 20
-4.711199056109309
 30
0.0
 10
-1.772628217089489
 20
-4.708129052365446
 30
0.0
 10
-1.769032594300113
 20
-4.711199056109309
 30
0.0
  0
SPLINE
  5
1A7
330
1F
100
AcDbEntity
  8
0
  6
Continuous
 62
     7
100
AcDbSpline
210
0.0
220
0.0
230
1.0
 70
     8
 71
     3
 72
     9
 73
     5
 74
     0
 42
0.00000001
 43
0.00000001
 40
0.0
 40
0.0
 40
0.0
 40
0.0
 40
0.5588350619665473
 40
1.0
 40
1.0
 40
1.0
 40
1.0
 10
-1.769031830660001
 20
-4.711199056109309
 30
0.0
 10
-1.754879304302979
 20
-4.733818977404646
 30
0.0
 10
-1.751658076925595
 20
-4.754635349545603
 30
0.0
 10
-1.752147180468707
 20
-4.747478963426777
 30
0.0
 10
-1.751658076925595
 20
-4.754635349545603
 30
0.0
  0
SPLINE
  5
1A8
330
1F
100
AcDbEntity
  8
0
  6
Continuous
 62
     7
100
AcDbSpline
210
0.0
220
0.0
230
1.0
 70
     8
 71
     3
 72
     9
 73
     5
 74
     0
 42
0.00000001
 43
0.00000001
 40
0.0
 40
0.0
 40
0.0
 40
0.0
 40
0.559334588018324
 40
1.0
 40
1.0
 40
1.0
 40
1.0
 10
-1.751657311371931
 20
-4.754635349545603
 30
0.0
 10
-1.758366462330948
 20
-4.786962800799394
 30
0.0
 10
-1.773376223643742
 20
-4.808206778117031
 30
0.0
 10
-1.767658795718349
 20
-4.801435742380453
 30
0.0
 10
-1.773376223643743
 20
-4.808206778117031
 30
0.0
  0
SPLINE
  5
1A9
330
1F
100
AcDbEntity
  8
0
  6
Continuous
 62
     7
100
AcDbSpline
210
0.0
220
0.0
230
1.0
 70
     8
 71
     3
 72
     9
 73
     5
 74
     0
 42
0.00000001
 43
0.00000001
 40
0.0
 40
0.0
 40
0.0
 40
0.0
 40
0.5575932496722608
 40
1.0
 40
1.0
 40
1.0
 40
1.0
 10
-1.773375460482019
 20
-4.808206778117031
 30
0.0
 10
-1.800909337479793
 20
-4.822822332662221
 30
0.0
 10
-1.825499775767295
 20
-4.825474045384297
 30
0.0
 10
-1.817100602132603
 20
-4.825249665625777
 30
0.0
 10
-1.825499775767295
 20
-4.825474045384298
 30
0.0
  0
SPLINE
  5
1AA
330
1F
100
AcDbEntity
  8
0
  6
Continuous
 62
     7
100
AcDbSpline
210
0.0
220
0.0
230
1.0
 70
     8
 71
     3
 72
     9
 73
     5
 74
     0
 42
0.00000001
 43
0.00000001
 40
0.0
 40
0.0
 40
0.0
 40
0.0
 40
0.5591460565147619
 40
1.0
 40
1.0
 40
1.0
 40
1.0
 10
-1.828394771560909
 20
-4.68224152715178
 30
0.0
 10
-1.8135297082369
 20
-4.679075583130203
 30
0.0
 10
-1.803781629049147
 20
-4.672106392016645
 30
0.0
 10
-1.806886083517228
 20
-4.674758114505651
 30
0.0
 10
-1.803781629049147
 20
-4.672106392016645
 30
0.0
  0
SPLINE
  5
1AB
330
1F
100
AcDbEntity
  8
0
  6
Continuous
 62
     7
100
AcDbSpline
210
0.0
220
0.0
230
1.0
 70
     8
 71
     3
 72
     9
 73
     5
 74
     0
 42
0.00000001
 43
0.00000001
 40
0.0
 40
0.0
 40
0.0
 40
0.0
 40
0.5584463204040865
 40
1.0
 40
1.0
 40
1.0
 40
1.0
 10
-1.803780869236143
 20
-4.672106392016644
 30
0.0
 10
-1.794230004439766
 20
-4.656217564445835
 30
0.0
 10
-1.792198617466136
 20
-4.641700986611238
 30
0.0
 10
-1.792469493980924
 20
-4.646683612929845
 30
0.0
 10
-1.792198617466136
 20
-4.641700986611238
 30
0.0
  0
SPLINE
  5
1AC
330
1F
100
AcDbEntity
  8
0
  6
Continuous
 62
     7
100
AcDbSpline
210
0.0
220
0.0
230
1.0
 70
     8
 71
     3
 72
     9
 73
     5
 74
     0
 42
0.00000001
 43
0.00000001
 40
0.0
 40
0.0
 40
0.0
 40
0.0
 40
0.5590339144167369
 40
1.0
 40
1.0
 40
1.0
 40
1.0
 10
-1.792197856377429
 20
-4.641700986611239
 30
0.0
 10
-1.795897173643185
 20
-4.625072369054106
 30
0.0
 10
-1.803781629049147
 20
-4.614191334101587
 30
0.0
 10
-1.800788472489476
 20
-4.617654040130965
 30
0.0
 10
-1.803781629049147
 20
-4.614191334101587
 30
0.0
  0
SPLINE
  5
1AD
330
1F
100
AcDbEntity
  8
0
  6
Continuous
 62
     7
100
AcDbSpline
210
0.0
220
0.0
230
1.0
 70
     8
 71
     3
 72
     9
 73
     5
 74
     0
 42
0.00000001
 43
0.00000001
 40
0.0
 40
0.0
 40
0.0
 40
0.0
 40
0.5588633637340503
 40
1.0
 40
1.0
 40
1.0
 40
1.0
 10
-1.803780869236143
 20
-4.614191334101587
 30
0.0
 10
-1.8150712633734
 20
-4.607026468507064
 30
0.0
 10
-1.825499775767295
 20
-4.605396825307078
 30
0.0
 10
-1.821912108903755
 20
-4.605644043217238
 30
0.0
 10
-1.825499775767295
 20
-4.605396825307079
 30
0.0
  0
SPLINE
  5
1AE
330
1F
100
AcDbEntity
  8
0
  6
Continuous
 62
     7
100
AcDbSpline
210
0.0
220
0.0
230
1.0
 70
     8
 71
     3
 72
     9
 73
     5
 74
     0
 42
0.00000001
 43
0.00000001
 40
0.0
 40
0.0
 40
0.0
 40
0.0
 40
0.5606035402873034
 40
1.0
 40
1.0
 40
1.0
 40
1.0
 10
-1.832738401382927
 20
-4.798071642981895
 30
0.0
 10
-1.812815017179507
 20
-4.794916248656
 30
0.0
 10
-1.799437999705519
 20
-4.786488631398884
 30
0.0
 10
-1.803733054425807
 20
-4.789733897496912
 30
0.0
 10
-1.799437999705519
 20
-4.786488631398884
 30
0.0
  0
SPLINE
  5
1AF
330
1F
100
AcDbEntity
  8
0
  6
Continuous
 62
     7
100
AcDbSpline
210
0.0
220
0.0
230
1.0
 70
     8
 71
     3
 72
     9
 73
     5
 74
     0
 42
0.00000001
 43
0.00000001
 40
0.0
 40
0.0
 40
0.0
 40
0.0
 40
0.5590511719621943
 40
1.0
 40
1.0
 40
1.0
 40
1.0
 10
-1.799437239414125
 20
-4.786488631398884
 30
0.0
 10
-1.788882632736361
 20
-4.769926619877142
 30
0.0
 10
-1.78640711167463
 20
-4.754635349545603
 30
0.0
 10
-1.786802406377953
 20
-4.759896183520561
 30
0.0
 10
-1.78640711167463
 20
-4.754635349545603
 30
0.0
  0
SPLINE
  5
1B0
330
1F
100
AcDbEntity
  8
0
  6
Continuous
 62
     7
100
AcDbSpline
210
0.0
220
0.0
230
1.0
 70
     8
 71
     3
 72
     9
 73
     5
 74
     0
 42
0.00000001
 43
0.00000001
 40
0.0
 40
0.0
 40
0.0
 40
0.0
 40
0.5602492525260427
 40
0.9999999999999999
 40
0.9999999999999999
 40
0.9999999999999999
 40
0.9999999999999999
 10
-1.786406349948072
 20
-4.754635349545603
 30
0.0
 10
-1.789676821981283
 20
-4.735527024203636
 30
0.0
 10
-1.797990123257642
 20
-4.72278206769232
 30
0.0
 10
-1.794797870395107
 20
-4.726865220036949
 30
0.0
 10
-1.797990123257642
 20
-4.722782067692321
 30
0.0
  0
SPLINE
  5
1B1
330
1F
100
AcDbEntity
  8
0
  6
Continuous
 62
     7
100
AcDbSpline
210
0.0
220
0.0
230
1.0
 70
     8
 71
     3
 72
     9
 73
     5
 74
     0
 42
0.00000001
 43
0.00000001
 40
0.0
 40
0.0
 40
0.0
 40
0.0
 40
0.5583972178557903
 40
1.0
 40
1.0
 40
1.0
 40
1.0
 10
-1.797989362806786
 20
-4.72278206769232
 30
0.0
 10
-1.816148376518126
 20
-4.711897435949405
 30
0.0
 10
-1.832739158006677
 20
-4.709643929554182
 30
0.0
 10
-1.827044775138825
 20
-4.709927404622851
 30
0.0
 10
-1.832739158006677
 20
-4.709643929554182
 30
0.0
  0
SPLINE
  5
1B2
330
1F
100
AcDbEntity
  8
0
  6
Continuous
 62
     7
100
AcDbSpline
210
0.0
220
0.0
230
1.0
 70
     8
 71
     3
 72
     9
 73
     5
 74
     0
 42
0.00000001
 43
0.00000001
 40
0.0
 40
0.0
 40
0.0
 40
0.0
 40
0.5595834627941342
 40
1.0
 40
1.0
 40
1.0
 40
1.0
 10
-0.3839659643924143
 20
-4.626144320988852
 30
0.0
 10
-0.3551867593970996
 20
-4.631845859558542
 30
0.0
 10
-0.3361861252536215
 20
-4.644966714811246
 30
0.0
 10
-0.3422517607273257
 20
-4.639959373971188
 30
0.0
 10
-0.3361861252536215
 20
-4.644966714811246
 30
0.0
  0
SPLINE
  5
1B3
330
1F
100
AcDbEntity
  8
0
  6
Continuous
 62
     7
100
AcDbSpline
210
0.0
220
0.0
230
1.0
 70
     8
 71
     3
 72
     9
 73
     5
 74
     0
 42
0.00000001
 43
0.00000001
 40
0.0
 40
0.0
 40
0.0
 40
0.0
 40
0.5580716512833092
 40
1.0
 40
1.0
 40
1.0
 40
1.0
 10
-0.3361860363502202
 20
-4.644966714811246
 30
0.0
 10
-0.3204821806132656
 20
-4.672313584943248
 30
0.0
 10
-0.3173637314312276
 20
-4.697090266934798
 30
0.0
 10
-0.3177169592496598
 20
-4.68860148795638
 30
0.0
 10
-0.3173637314312276
 20
-4.697090266934798
 30
0.0
  0
SPLINE
  5
1B4
330
1F
100
AcDbEntity
  8
0
  6
Continuous
 62
     7
100
AcDbSpline
210
0.0
220
0.0
230
1.0
 70
     8
 71
     3
 72
     9
 73
     5
 74
     0
 42
0.00000001
 43
0.00000001
 40
0.0
 40
0.0
 40
0.0
 40
0.0
 40
0.5603463842755083
 40
1.0
 40
1.0
 40
1.0
 40
1.0
 10
-0.3173636404548105
 20
-4.697090266934798
 30
0.0
 10
-0.3226785510029206
 20
-4.728335089504101
 30
0.0
 10
-0.3361861252536215
 20
-4.74921381905835
 30
0.0
 10
-0.330999393959198
 20
-4.742520693442932
 30
0.0
 10
-0.3361861252536215
 20
-4.74921381905835
 30
0.0
  0
SPLINE
  5
1B5
330
1F
100
AcDbEntity
  8
0
  6
Continuous
 62
     7
100
AcDbSpline
210
0.0
220
0.0
230
1.0
 70
     8
 71
     3
 72
     9
 73
     5
 74
     0
 42
0.00000001
 43
0.00000001
 40
0.0
 40
0.0
 40
0.0
 40
0.0
 40
0.5587862491300722
 40
1.0
 40
1.0
 40
1.0
 40
1.0
 10
-0.3361860363502202
 20
-4.74921381905835
 30
0.0
 10
-0.3514018456324338
 20
-4.758750556982064
 30
0.0
 10
-0.3651436542111502
 20
-4.762244707089238
 30
0.0
 10
-0.3604360177510357
 20
-4.761376779587819
 30
0.0
 10
-0.3651436542111502
 20
-4.762244707089238
 30
0.0
  0
SPLINE
  5
1B6
330
1F
100
AcDbEntity
  8
0
  6
Continuous
 62
     7
100
AcDbSpline
210
0.0
220
0.0
230
1.0
 70
     8
 71
     3
 72
     9
 73
     5
 74
     0
 42
0.00000001
 43
0.00000001
 40
0.0
 40
0.0
 40
0.0
 40
0.0
 40
0.5591567444873193
 40
1.0
 40
1.0
 40
1.0
 40
1.0
 10
-0.3868617176070927
 20
-4.739078683923215
 30
0.0
 10
-0.3719959805031502
 20
-4.735912739901637
 30
0.0
 10
-0.3622479013153976
 20
-4.728943548788079
 30
0.0
 10
-0.365352357602977
 20
-4.731595271261082
 30
0.0
 10
-0.3622479013153976
 20
-4.728943548788079
 30
0.0
  0
SPLINE
  5
1B7
330
1F
100
AcDbEntity
  8
0
  6
Continuous
 62
     7
100
AcDbSpline
210
0.0
220
0.0
230
1.0
 70
     8
 71
     3
 72
     9
 73
     5
 74
     0
 42
0.00000001
 43
0.00000001
 40
0.0
 40
0.0
 40
0.0
 40
0.0
 40
0.557204958167583
 40
1.0
 40
1.0
 40
1.0
 40
1.0
 10
-0.3622478152823261
 20
-4.728943548788079
 30
0.0
 10
-0.3536336705505763
 20
-4.712069096209221
 30
0.0
 10
-0.3521127661802627
 20
-4.697090266934798
 30
0.0
 10
-0.3522267896340232
 20
-4.702199014097998
 30
0.0
 10
-0.3521127661802627
 20
-4.697090266934798
 30
0.0
  0
SPLINE
  5
1B8
330
1F
100
AcDbEntity
  8
0
  6
Continuous
 62
     7
100
AcDbSpline
210
0.0
220
0.0
230
1.0
 70
     8
 71
     3
 72
     9
 73
     5
 74
     0
 42
0.00000001
 43
0.00000001
 40
0.0
 40
0.0
 40
0.0
 40
0.0
 40
0.5602478064094752
 40
0.9999999999999999
 40
0.9999999999999999
 40
0.9999999999999999
 40
0.9999999999999999
 10
-0.3521126790309516
 20
-4.697090266934798
 30
0.0
 10
-0.3553824764869151
 20
-4.677981941592832
 30
0.0
 10
-0.3636957777632745
 20
-4.665236985081516
 30
0.0
 10
-0.3605034858125827
 20
-4.669320130430597
 30
0.0
 10
-0.3636957777632745
 20
-4.665236985081516
 30
0.0
  0
SPLINE
  5
1B9
330
1F
100
AcDbEntity
  8
0
  6
Continuous
 62
     7
100
AcDbSpline
210
0.0
220
0.0
230
1.0
 70
     8
 71
     3
 72
     9
 73
     5
 74
     0
 42
0.00000001
 43
0.00000001
 40
0.0
 40
0.0
 40
0.0
 40
0.0
 40
0.5592244112409435
 40
1.0
 40
1.0
 40
1.0
 40
1.0
 10
-0.3636956918896653
 20
-4.665236985081515
 30
0.0
 10
-0.3779449251250129
 20
-4.655833594069613
 30
0.0
 10
-0.3912054302729263
 20
-4.653546723391253
 30
0.0
 10
-0.3866361776824652
 20
-4.653932532752208
 30
0.0
 10
-0.3912054302729263
 20
-4.653546723391253
 30
0.0
  0
LWPOLYLINE
  5
1BA
330
1F
100
AcDbEntity
  8
0
  6
Continuous
 62
     7
100
AcDbPolyline
 90
       24
 70
   128
 43
0.0
 10
-1.9626953001
 20
-0.4876719415
 10
-2.0408813187
 20
-0.3689460727
 10
-2.0408813187
 20
-0.3689460727
 10
-2.0032365311
 20
-0.3689460727
 10
-2.0032365311
 20
-0.3689460727
 10
-1.9453214732
 20
-0.4601622889
 10
-1.9453214732
 20
-0.4601622889
 10
-1.8874064153
 20
-0.3689460727
 10
-1.8874064153
 20
-0.3689460727
 10
-1.8497616276
 20
-0.3689460727
 10
-1.8497616276
 20
-0.3689460727
 10
-1.9279469558
 20
-0.4876719415
 10
-1.9279469558
 20
-0.4876719415
 10
-1.8425222454
 20
-0.6165329453
 10
-1.8425222454
 20
-0.6165329453
 10
-1.880167033
 20
-0.6165329453
 10
-1.880167033
 20
-0.6165329453
 10
-1.9453214732
 20
-0.515181594
 10
-1.9453214732
 20
-0.515181594
 10
-2.0104759133
 20
-0.6165329453
 10
-2.0104759133
 20
-0.6165329453
 10
-2.048120701
 20
-0.6165329453
 10
-2.048120701
 20
-0.6165329453
 10
-1.9626959905
 20
-0.4876719415
  0
LWPOLYLINE
  5
1BB
330
1F
100
AcDbEntity
  8
0
  6
Continuous
 62
     7
100
AcDbPolyline
 90
       18
 70
   128
 43
0.0
 10
-0.1888327653
 20
-0.4174746632
 10
-0.1540838178
 20
-0.4174746632
 10
-0.1540838178
 20
-0.4174746632
 10
-0.0831378718
 20
-0.5304090262
 10
-0.0831378718
 20
-0.5304090262
 10
-0.0121919259
 20
-0.4174746632
 10
-0.0121919259
 20
-0.4174746632
 10
0.0225571089
 20
-0.4174746632
 10
0.0225571089
 20
-0.4174746632
 10
-0.0657633545
 20
-0.5550229258
 10
-0.0657633545
 20
-0.5550229258
 10
-0.0657633545
 20
-0.6650615358
 10
-0.0657633545
 20
-0.6650615358
 10
-0.1000297637
 20
-0.6650615358
 10
-0.1000297637
 20
-0.6650615358
 10
-0.1000297637
 20
-0.5550229258
 10
-0.1000297637
 20
-0.5550229258
 10
-0.1888328525
 20
-0.4174746632
  0
LWPOLYLINE
  5
1BC
330
1F
100
AcDbEntity
  8
0
  6
Continuous
 62
     7
100
AcDbPolyline
 90
       12
 70
   128
 43
0.0
 10
1.3696126581
 20
-0.4150585744
 10
1.4038797911
 20
-0.4150585744
 10
1.4038797911
 20
-0.4150585744
 10
1.4038797911
 20
-0.6351357945
 10
1.4038797911
 20
-0.6351357945
 10
1.5370844243
 20
-0.6351357945
 10
1.5370844243
 20
-0.6351357945
 10
1.5370844243
 20
-0.6625381969
 10
1.5370844243
 20
-0.6625381969
 10
1.3696133818
 20
-0.6625381969
 10
1.3696133818
 20
-0.6625381969
 10
1.3696133818
 20
-0.4150585744
  0
LWPOLYLINE
  5
1BD
330
1F
100
AcDbEntity
  8
0
  6
Continuous
 62
     7
100
AcDbPolyline
 90
       16
 70
   128
 43
0.0
 10
1.5508119516
 20
-0.4150585744
 10
1.7491715114
 20
-0.4150585744
 10
1.7491715114
 20
-0.4150585744
 10
1.7491715114
 20
-0.4424609768
 10
1.7491715114
 20
-0.4424609768
 10
1.6666425539
 20
-0.4424609768
 10
1.6666425539
 20
-0.4424609768
 10
1.6666425539
 20
-0.662645447
 10
1.6666425539
 20
-0.662645447
 10
1.6323761446
 20
-0.662645447
 10
1.6323761446
 20
-0.662645447
 10
1.6323761446
 20
-0.4424609768
 10
1.6323761446
 20
-0.4424609768
 10
1.550812438
 20
-0.4424609768
 10
1.550812438
 20
-0.4424609768
 10
1.550812438
 20
-0.4150585744
  0
POINT
  5
1BE
330
1F
100
AcDbEntity
  8
0
  6
Continuous
 62
     7
100
AcDbPoint
 10
0.0103976893
 20
-1.6885664601
 30
0.0
  0
POINT
  5
1BF
330
1F
100
AcDbEntity
  8
0
  6
Continuous
 62
     7
100
AcDbPoint
 10
1.5496534135
 20
-1.7481419538
 30
0.0
  0
POINT
  5
1C0
330
1F
100
AcDbEntity
  8
0
  6
Continuous
 62
     7
100
AcDbPoint
 10
-2.484239102
 20
-0.5424817592
 30
0.0
  0
POINT
  5
1C1
330
1F
100
AcDbEntity
  8
0
  6
Continuous
 62
     7
100
AcDbPoint
 10
-2.484239102
 20
-1.6910008559
 30
0.0
  0
POINT
  5
1C2
330
1F
100
AcDbEntity
  8
0
  6
Continuous
 62
     7
100
AcDbPoint
 10
2.8790806832
 20
-2.2675018056
 30
0.0
  0
POINT
  5
1C3
330
1F
100
AcDbEntity
  8
0
  6
Continuous
 62
     7
100
AcDbPoint
 10
3.1990806832
 20
-0.0875018056
 30
0.0
  0
POINT
  5
1C4
330
1F
100
AcDbEntity
  8
0
  6
Continuous
 62
     7
100
AcDbPoint
 10
3.7190806832
 20
-0.5424817592
 30
0.0
  0
POINT
  5
1C5
330
1F
100
AcDbEntity
  8
0
  6
Continuous
 62
     7
100
AcDbPoint
 10
3.7190806832
 20
-1.651976686
 30
0.0
  0
POINT
  5
1C6
330
1F
100
AcDbEntity
  8
0
  6
Continuous
 62
     7
100
AcDbPoint
 10
-1.8611054916
 20
-0.0875018056
 30
0.0
  0
POINT
  5
1C7
330
1F
100
AcDbEntity
  8
0
  6
Continuous
 62
     7
100
AcDbPoint
 10
-1.5403406086
 20
-2.2675018056
 30
0.0
  0
POINT
  5
1C8
330
1F
100
AcDbEntity
  8
0
  6
Continuous
 62
     7
100
AcDbPoint
 10
3.093241887
 20
-4.6867259332
 30
0.0
  0
POINT
  5
1C9
330
1F
100
AcDbEntity
  8
0
  6
Continuous
 62
     7
100
AcDbPoint
 10
2.772477004
 20
-6.4766178188
 30
0.0
  0
POINT
  5
1CA
330
1F
100
AcDbEntity
  8
0
  6
Continuous
 62
     7
100
AcDbPoint
 10
3.093241887
 20
-4.2966178188
 30
0.0
  0
POINT
  5
1CB
330
1F
100
AcDbEntity
  8
0
  6
Continuous
 62
     7
100
AcDbPoint
 10
-2.4869442878
 20
-5.8610926992
 30
0.0
  0
POINT
  5
1CC
330
1F
100
AcDbEntity
  8
0
  6
Continuous
 62
     7
100
AcDbPoint
 10
-2.4869442878
 20
-4.7515977724
 30
0.0
  0
POINT
  5
1CD
330
1F
100
AcDbEntity
  8
0
  6
Continuous
 62
     7
100
AcDbPoint
 10
-1.9669442878
 20
-4.2966178188
 30
0.0
  0
POINT
  5
1CE
330
1F
100
AcDbEntity
  8
0
  6
Continuous
 62
     7
100
AcDbPoint
 10
-1.6469442878
 20
-6.4766178188
 30
0.0
  0
POINT
  5
1CF
330
1F
100
AcDbEntity
  8
0
  6
Continuous
 62
     7
100
AcDbPoint
 10
3.6435290587
 20
-5.9001168691
 30
0.0
  0
POINT
  5
1D0
330
1F
100
AcDbEntity
  8
0
  6
Continuous
 62
     7
100
AcDbPoint
 10
3.6435290587
 20
-4.7515977724
 30
0.0
  0
POINT
  5
1D1
330
1F
100
AcDbEntity
  8
0
  6
Continuous
 62
     7
100
AcDbPoint
 10
-0.3175170181
 20
-5.9572579671
 30
0.0
  0
POINT
  5
1D2
330
1F
100
AcDbEntity
  8
0
  6
Continuous
 62
     7
100
AcDbPoint
 10
1.2967387061
 20
-5.8976824733
 30
0.0
  0
POINT
  5
1D3
330
1F
100
AcDbEntity
  8
0
  6
Continuous
 62
     7
100
AcDbPoint
 10
-1.8611054916
 20
-0.47760992
 30
0.0
  0
MTEXT
  5
1D5
330
1F
100
AcDbEntity
  8
0
  6
Continuous
 62
     7
100
AcDbMText
 10
-2.7737122638
 20
-7.1312331084
 30
0.0
 40
0.1903
 41
0.0
 71
     1
 72
     1
  1
SOLIDWORKS Educational Product.
  7
SLDTEXTSTYLE0
 73
     1
 44
1.0
  0
MTEXT
  5
1D6
330
1F
100
AcDbEntity
  8
0
  6
Continuous
 62
     7
100
AcDbMText
 10
-2.7737122638
 20
-7.4166831084
 30
0.0
 40
0.1903
 41
0.0
 71
     1
 72
     1
  1
For Instructional Use Only.
  7
SLDTEXTSTYLE0
 73
     1
 44
1.0
  0
ENDSEC
  0
SECTION
  2
OBJECTS
  0
DICTIONARY
  5
C
330
0
100
AcDbDictionary
281
     1
  3
ACAD_GROUP
350
D
  3
ACAD_LAYOUT
350
1A
  3
ACAD_MLINESTYLE
350
17
  3
ACAD_PLOTSETTINGS
350
19
  3
ACAD_PLOTSTYLENAME
350
E
  3
ACAD_SCALELIST
350
47
  3
DWGPROPS
350
1D7
  0
DICTIONARY
  5
D
102
{ACAD_REACTORS
330
C
102
}
330
C
100
AcDbDictionary
281
     1
  0
DICTIONARY
  5
1A
102
{ACAD_REACTORS
330
C
102
}
330
C
100
AcDbDictionary
281
     1
  3
Layout1
350
1E
  3
Layout2
350
26
  3
Model
350
22
  0
DICTIONARY
  5
17
102
{ACAD_REACTORS
330
C
102
}
330
C
100
AcDbDictionary
281
     1
  3
Standard
350
18
  0
DICTIONARY
  5
19
102
{ACAD_REACTORS
330
C
102
}
330
C
100
AcDbDictionary
281
     1
  0
ACDBDICTIONARYWDFLT
  5
E
102
{ACAD_REACTORS
330
C
102
}
330
C
100
AcDbDictionary
281
     1
  3
Normal
350
F
100
AcDbDictionaryWithDefault
340
F
  0
DICTIONARY
  5
47
102
{ACAD_REACTORS
330
C
102
}
330
C
100
AcDbDictionary
281
     1
  3
A0
350
48
  3
A1
350
49
  3
A2
350
4A
  3
A3
350
4B
  3
A4
350
4C
  3
A5
350
4D
  3
A6
350
4E
  3
A7
350
4F
  3
A8
350
50
  3
A9
350
51
  3
B1
350
52
  3
B2
350
53
  3
B3
350
54
  3
B4
350
55
  3
B5
350
56
  3
B6
350
57
  3
B7
350
58
  0
XRECORD
  5
1D7
102
{ACAD_REACTORS
330
C
102
}
330
C
100
AcDbXrecord
280
     1
  1
DWGPROPS COOKIE
  2

  3

  4

  6

  7

  8
Seokyoung Choi
  9

300
=
301
=
302
=
303
=
304
=
305
=
306
=
307
=
308
=
309
=
 40
0.0
 41
2460027.864266192
 42
2460027.864690613
  1

 90
        0
  0
LAYOUT
  5
1E
102
{ACAD_REACTORS
330
1A
102
}
330
1A
100
AcDbPlotSettings
  1

  2
none_device
  4

  6

 40
0.0
 41
0.0
 42
0.0
 43
0.0
 44
0.0
 45
0.0
 46
0.0
 47
0.0
 48
0.0
 49
0.0
140
0.0
141
0.0
142
1.0
143
1.0
 70
   688
 72
     0
 73
     0
 74
     5
  7

 75
    16
147
1.0
148
0.0
149
0.0
100
AcDbLayout
  1
Layout1
 70
     1
 71
     1
 10
0.0
 20
0.0
 11
12.0
 21
9.0
 12
0.0
 22
0.0
 32
0.0
 14
1.0000000000E+20
 24
1.0000000000E+20
 34
1.0000000000E+20
 15
-1.0000000000E+20
 25
-1.0000000000E+20
 35
-1.0000000000E+20
146
0.0
 13
0.0
 23
0.0
 33
0.0
 16
1.0
 26
0.0
 36
0.0
 17
0.0
 27
1.0
 37
0.0
 76
     0
330
1B
  0
LAYOUT
  5
26
102
{ACAD_REACTORS
330
1A
102
}
330
1A
100
AcDbPlotSettings
  1

  2
none_device
  4

  6

 40
0.0
 41
0.0
 42
0.0
 43
0.0
 44
0.0
 45
0.0
 46
0.0
 47
0.0
 48
0.0
 49
0.0
140
0.0
141
0.0
142
1.0
143
1.0
 70
   688
 72
     0
 73
     0
 74
     5
  7

 75
    16
147
1.0
148
0.0
149
0.0
100
AcDbLayout
  1
Layout2
 70
     1
 71
     2
 10
0.0
 20
0.0
 11
0.0
 21
0.0
 12
0.0
 22
0.0
 32
0.0
 14
0.0
 24
0.0
 34
0.0
 15
0.0
 25
0.0
 35
0.0
146
0.0
 13
0.0
 23
0.0
 33
0.0
 16
1.0
 26
0.0
 36
0.0
 17
0.0
 27
1.0
 37
0.0
 76
     0
330
23
  0
LAYOUT
  5
22
102
{ACAD_REACTORS
330
1A
102
}
330
1A
100
AcDbPlotSettings
  1

  2
none_device
  4
ANSI_A_(11.00_x_8.50_Inches)
  6

 40
6.35
 41
19.05
 42
6.35000508
 43
19.05000254
 44
279.4
 45
215.9
 46
115.964895691
 47
191.3999856594
 48
0.0
 49
0.0
140
0.0
141
0.0
142
1.1624347482
143
1.0
 70
  1696
 72
     0
 73
     0
 74
     0
  7

 75
     0
147
0.5913241897
148
-39.4088153714
149
0.0
100
AcDbLayout
  1
Model
 70
     1
 71
     0
 10
0.0
 20
0.0
 11
12.0
 21
9.0
 12
0.0
 22
0.0
 32
0.0
 14
-2.7737122638
 24
-7.0910926992
 34
0.0
 15
3.9513316125
 25
0.148023314
 35
0.0
146
0.0
 13
0.0
 23
0.0
 33
0.0
 16
1.0
 26
0.0
 36
0.0
 17
0.0
 27
1.0
 37
0.0
 76
     0
330
1F
331
29
  0
MLINESTYLE
  5
18
102
{ACAD_REACTORS
330
17
102
}
330
17
100
AcDbMlineStyle
  2
Standard
 70
     0
  3

 62
   256
 51
90.0
 52
90.0
 71
     2
 49
0.5
 62
   256
  6
BYLAYER
 49
-0.5
 62
   256
  6
BYLAYER
  0
ACDBPLACEHOLDER
  5
F
102
{ACAD_REACTORS
330
E
102
}
330
E
  0
SCALE
  5
48
102
{ACAD_REACTORS
330
47
102
}
330
47
100
AcDbScale
 70
     0
300
1:1
140
1.0
141
1.0
290
     1
  0
SCALE
  5
49
102
{ACAD_REACTORS
330
47
102
}
330
47
100
AcDbScale
 70
     0
300
1/128" = 1'-0"
140
0.0078125
141
12.0
290
     0
  0
SCALE
  5
4A
102
{ACAD_REACTORS
330
47
102
}
330
47
100
AcDbScale
 70
     0
300
1/64" = 1'-0"
140
0.015625
141
12.0
290
     0
  0
SCALE
  5
4B
102
{ACAD_REACTORS
330
47
102
}
330
47
100
AcDbScale
 70
     0
300
1/32" = 1'-0"
140
0.03125
141
12.0
290
     0
  0
SCALE
  5
4C
102
{ACAD_REACTORS
330
47
102
}
330
47
100
AcDbScale
 70
     0
300
1/16" = 1'-0"
140
0.0625
141
12.0
290
     0
  0
SCALE
  5
4D
102
{ACAD_REACTORS
330
47
102
}
330
47
100
AcDbScale
 70
     0
300
3/32" = 1'-0"
140
0.09375
141
12.0
290
     0
  0
SCALE
  5
4E
102
{ACAD_REACTORS
330
47
102
}
330
47
100
AcDbScale
 70
     0
300
1/8" = 1'-0"
140
0.125
141
12.0
290
     0
  0
SCALE
  5
4F
102
{ACAD_REACTORS
330
47
102
}
330
47
100
AcDbScale
 70
     0
300
3/16" = 1'-0"
140
0.1875
141
12.0
290
     0
  0
SCALE
  5
50
102
{ACAD_REACTORS
330
47
102
}
330
47
100
AcDbScale
 70
     0
300
1/4" = 1'-0"
140
0.25
141
12.0
290
     0
  0
SCALE
  5
51
102
{ACAD_REACTORS
330
47
102
}
330
47
100
AcDbScale
 70
     0
300
3/8" = 1'-0"
140
0.375
141
12.0
290
     0
  0
SCALE
  5
52
102
{ACAD_REACTORS
330
47
102
}
330
47
100
AcDbScale
 70
     0
300
1/2" = 1'-0"
140
0.5
141
12.0
290
     0
  0
SCALE
  5
53
102
{ACAD_REACTORS
330
47
102
}
330
47
100
AcDbScale
 70
     0
300
3/4" = 1'-0"
140
0.75
141
12.0
290
     0
  0
SCALE
  5
54
102
{ACAD_REACTORS
330
47
102
}
330
47
100
AcDbScale
 70
     0
300
1" = 1'-0"
140
1.0
141
12.0
290
     0
  0
SCALE
  5
55
102
{ACAD_REACTORS
330
47
102
}
330
47
100
AcDbScale
 70
     0
300
1-1/2" = 1'-0"
140
1.5
141
12.0
290
     0
  0
SCALE
  5
56
102
{ACAD_REACTORS
330
47
102
}
330
47
100
AcDbScale
 70
     0
300
3" = 1'-0"
140
3.0
141
12.0
290
     0
  0
SCALE
  5
57
102
{ACAD_REACTORS
330
47
102
}
330
47
100
AcDbScale
 70
     0
300
6" = 1'-0"
140
6.0
141
12.0
290
     0
  0
SCALE
  5
58
102
{ACAD_REACTORS
330
47
102
}
330
47
100
AcDbScale
 70
     0
300
1'-0" = 1'-0"
140
12.0
141
12.0
290
     0
  0
ENDSEC
  0
EOF
